<?xml version="1.0" encoding="utf-8"?>
<!-- Generator: Adobe Illustrator 23.0.1, SVG Export Plug-In . SVG Version: 6.00 Build 0)  -->
<svg version="1.1" id="Layer_1" xmlns="http://www.w3.org/2000/svg" xmlns:xlink="http://www.w3.org/1999/xlink" x="0px" y="0px"
	 viewBox="0 0 622 456" style="enable-background:new 0 0 622 456;" xml:space="preserve">
<g>
	<g>
		<g>
			<path d="M284.17,142.97c19.5,19.5,39,39,58.49,58.49c4.56,4.56,11.63-2.51,7.07-7.07c-19.5-19.5-39-39-58.49-58.49
				C286.69,131.34,279.62,138.41,284.17,142.97L284.17,142.97z"/>
		</g>
	</g>
	<g>
		<g>
			<path d="M291.25,201.46c19.5-19.5,39-39,58.49-58.49c4.56-4.56-2.51-11.63-7.07-7.07c-19.5,19.5-39,39-58.49,58.49
				C279.62,198.95,286.69,206.02,291.25,201.46L291.25,201.46z"/>
		</g>
	</g>
</g>
<g>
	<g>
		<g>
			<path d="M365.79,125.83c-15.93-5.1-31.56-11.04-46.81-17.91c-5.82-2.62-10.91,5.99-5.05,8.63c16.04,7.22,32.44,13.56,49.2,18.92
				C369.28,137.44,371.91,127.78,365.79,125.83L365.79,125.83z"/>
		</g>
	</g>
	<g>
		<g>
			<path d="M269.78,135.47c16.76-5.36,33.16-11.7,49.2-18.92c5.86-2.64,0.78-11.26-5.05-8.63c-15.25,6.87-30.88,12.82-46.81,17.91
				C261.02,127.78,263.63,137.44,269.78,135.47L269.78,135.47z"/>
		</g>
	</g>
</g>
</svg>
