<svg id="wave" style="transform:rotate(180deg); transition: 0.3s" viewBox="0 0 1440 490" version="1.1" xmlns="http://www.w3.org/2000/svg"><defs><linearGradient id="sw-gradient-0" x1="0" x2="0" y1="1" y2="0"><stop stop-color="rgba(94, 191, 223, 1)" offset="0%"></stop><stop stop-color="rgba(89, 222, 216, 1)" offset="100%"></stop></linearGradient></defs><path style="transform:translate(0, 0px); opacity:1" fill="url(#sw-gradient-0)" d="M0,147L60,155.2C120,163,240,180,360,179.7C480,180,600,163,720,204.2C840,245,960,343,1080,326.7C1200,310,1320,180,1440,163.3C1560,147,1680,245,1800,236.8C1920,229,2040,114,2160,114.3C2280,114,2400,229,2520,302.2C2640,376,2760,408,2880,367.5C3000,327,3120,212,3240,204.2C3360,196,3480,294,3600,334.8C3720,376,3840,359,3960,343C4080,327,4200,310,4320,302.2C4440,294,4560,294,4680,302.2C4800,310,4920,327,5040,334.8C5160,343,5280,343,5400,318.5C5520,294,5640,245,5760,228.7C5880,212,6000,229,6120,269.5C6240,310,6360,376,6480,392C6600,408,6720,376,6840,310.3C6960,245,7080,147,7200,147C7320,147,7440,245,7560,310.3C7680,376,7800,408,7920,392C8040,376,8160,310,8280,302.2C8400,294,8520,343,8580,367.5L8640,392L8640,490L8580,490C8520,490,8400,490,8280,490C8160,490,8040,490,7920,490C7800,490,7680,490,7560,490C7440,490,7320,490,7200,490C7080,490,6960,490,6840,490C6720,490,6600,490,6480,490C6360,490,6240,490,6120,490C6000,490,5880,490,5760,490C5640,490,5520,490,5400,490C5280,490,5160,490,5040,490C4920,490,4800,490,4680,490C4560,490,4440,490,4320,490C4200,490,4080,490,3960,490C3840,490,3720,490,3600,490C3480,490,3360,490,3240,490C3120,490,3000,490,2880,490C2760,490,2640,490,2520,490C2400,490,2280,490,2160,490C2040,490,1920,490,1800,490C1680,490,1560,490,1440,490C1320,490,1200,490,1080,490C960,490,840,490,720,490C600,490,480,490,360,490C240,490,120,490,60,490L0,490Z"></path></svg>
