<?xml version="1.0" encoding="utf-8"?>
<!-- Generator: Adobe Illustrator 23.0.1, SVG Export Plug-In . SVG Version: 6.00 Build 0)  -->
<svg version="1.1" id="Group_1_xA0_Image_1_" xmlns="http://www.w3.org/2000/svg" xmlns:xlink="http://www.w3.org/1999/xlink"
	 x="0px" y="0px" viewBox="0 0 253.44 185.76" style="enable-background:new 0 0 253.44 185.76;" xml:space="preserve">
<style type="text/css">
	.st0{fill:transparent;}
	.st1{fill:#050604;}
	.st2{fill:#72B321;}
	.st3{fill:#5C9318;}
	.st4{fill:#93FAF4;}
	.st5{fill:#D2B920;}
</style>
<g>
	<g>
		<path class="st0" d="M181.72,92.4c0,26.56,0,53.12,0.02,79.68c0,0.82-0.16,0.98-0.98,0.98c-31.92-0.03-63.84-0.03-95.76,0
			c-0.82,0-0.98-0.16-0.98-0.98c0.03-53.12,0.03-106.24,0-159.36c0-0.82,0.16-0.98,0.98-0.98c31.92,0.03,63.84,0.03,95.76,0
			c0.82,0,0.98,0.16,0.98,0.98C181.72,39.28,181.72,65.84,181.72,92.4z M172.7,43.14c0.31-5.15,0.49-10.31,0.3-15.47
			c-0.09-2.63-0.11-5.28-0.6-7.89c-0.22-1.18-0.83-1.95-2.12-2.08c-0.38-0.04-0.75-0.25-1.1-0.43c-2.89-1.47-5.77-2.94-8.65-4.42
			c-0.95-0.49-1.91-0.7-2.99-0.64c-3.95,0.21-7.91,0.4-11.86,0.48c-16.73,0.34-33.35,2.14-50,3.51c-2.58,0.21-5.13,0.69-7.73,0.7
			c-2.26,0.01-3.38,1.27-3.18,3.48c0.24,2.54,0.65,5.07,0.94,7.61c1.16,10.22,1.64,20.49,1.73,30.77c0.04,4.76-0.27,9.53,0.07,14.27
			c0.27,3.86,0.23,7.68-0.18,11.48c-1.12,10.35-1.37,20.74-1.55,31.14c-0.19,11.16-0.06,22.31,0.47,33.46
			c0.15,3.11,0.04,6.24,0.18,9.35c0.08,1.87,0.17,3.89,1.72,5.21c1.43,1.22,3.08,2.3,4.73,3.1c4.02,1.95,8.23,3.5,12.49,4.87
			c2.05,0.66,3.96,1.21,6.35,0.61c2.74-0.68,5.64-1.05,8.5-1.39c10.01-1.19,20.08-1.67,30.11-2.65c3.02-0.29,6.09-0.28,9-1.28
			c2.34-0.81,4.72-1.14,7.18-1.17c0.84-0.01,1.7-0.03,2.5-0.23c3.13-0.79,6.29-1.05,9.51-0.93c1.4,0.05,2.24-0.74,2.47-2.12
			c0.1-0.63,0.13-1.28,0.09-1.91c-0.15-2.28-0.12-4.56,0-6.83c0.12-2.24,0.33-4.47,0.18-6.71c-0.77-11.37-1.72-22.73-3.04-34.05
			c-0.92-7.82-2.14-15.61-3.02-23.43c-0.75-6.63-1.15-13.3-1.8-19.95C172.54,60.8,172.02,51.99,172.7,43.14z"/>
		<path class="st1" d="M172.7,43.14c-0.68,8.85-0.16,17.66,0.7,26.47c0.65,6.65,1.05,13.32,1.8,19.95
			c0.88,7.82,2.11,15.61,3.02,23.43c1.33,11.32,2.27,22.68,3.04,34.05c0.15,2.24-0.06,4.48-0.18,6.71c-0.13,2.28-0.15,4.55,0,6.83
			c0.04,0.63,0.02,1.28-0.09,1.91c-0.23,1.38-1.08,2.17-2.47,2.12c-3.22-0.12-6.38,0.14-9.51,0.93c-0.8,0.2-1.67,0.22-2.5,0.23
			c-2.46,0.03-4.84,0.36-7.18,1.17c-2.91,1-5.98,0.98-9,1.28c-10.03,0.98-20.1,1.46-30.11,2.65c-2.85,0.34-5.76,0.71-8.5,1.39
			c-2.39,0.59-4.3,0.04-6.35-0.61c-4.26-1.37-8.48-2.92-12.49-4.87c-1.65-0.8-3.3-1.88-4.73-3.1c-1.55-1.32-1.64-3.34-1.72-5.21
			c-0.14-3.11-0.03-6.24-0.18-9.35c-0.53-11.15-0.66-22.3-0.47-33.46c0.18-10.39,0.43-20.78,1.55-31.14
			c0.41-3.8,0.45-7.62,0.18-11.48c-0.33-4.73-0.02-9.51-0.07-14.27C87.35,48.49,86.86,38.22,85.71,28c-0.29-2.54-0.7-5.07-0.94-7.61
			c-0.21-2.22,0.92-3.48,3.18-3.48c2.6-0.01,5.15-0.49,7.73-0.7c16.65-1.37,33.27-3.16,50-3.51c3.96-0.08,7.91-0.28,11.86-0.48
			c1.09-0.06,2.05,0.16,2.99,0.64c2.88,1.48,5.76,2.95,8.65,4.42c0.35,0.18,0.72,0.39,1.1,0.43c1.29,0.12,1.9,0.9,2.12,2.08
			c0.49,2.61,0.51,5.25,0.6,7.89C173.18,32.83,173,37.99,172.7,43.14z M119.89,57.19c-0.36,0.3-0.75,0.79-0.85-0.19
			c-0.2-1.98-0.5-3.96-0.63-5.94c-0.1-1.54-0.11-3.11,0.39-4.84c0.46,0.84,0.34,1.57,0.5,2.24c0.05,0.2,0.14,0.41,0.37,0.4
			c0.21-0.01,0.32-0.22,0.34-0.43c0.09-0.6-0.02-1.19-0.18-1.77c-0.2-0.75-0.21-1.88-1.15-1.87c-0.96,0.01-0.94,1.13-1.07,1.89
			c-0.61,3.69-0.12,7.31,0.65,10.92c0.12,0.56,0.11,1.35,0.85,1.41c0.67,0.06,0.58-0.71,0.8-1.14c0.07-0.13,0.18-0.25,0.27-0.37
			c0.58-1.48,1.29-2.94,0.85-4.6c-0.12-0.45-0.44-0.78-0.94-0.8c-0.42-0.02-0.67,0.25-0.77,0.63c-0.13,0.47-0.04,0.94,0.44,1.12
			c0.66,0.24,0.63,0.75,0.63,1.26C120.4,55.84,120.11,56.51,119.89,57.19z M166.59,43.28c0.36,0.01,0.38,0.6,0.84,0.52
			c0.05-0.3,0.11-0.58,0.14-0.85c0.08-0.81-0.01-1.62-0.94-1.82c-0.88-0.18-1.23,0.56-1.54,1.23c-0.08,0.18-0.14,0.37-0.19,0.57
			c-0.47,2-0.18,3.97,0.19,5.94c0.08,0.45,0.28,0.96,0.75,0.99c1.16,0.07,1.17,0.87,1.21,1.69c0.04,0.89,0.11,1.8-1.06,2.11
			c-0.41,0.11-0.79,0.32-0.61,0.84c0.18,0.54,0.65,0.53,1.1,0.45c0.46-0.09,0.77-0.42,1.03-0.78c0.95-1.31,0.63-3.78-0.63-4.81
			c-0.18-0.15-0.45-0.22-0.46-0.51c-0.06-1.86-0.65-3.72-0.06-5.58l0.12,0.02L166.59,43.28z M159.86,44.55
			c-0.05-1.02-0.43-1.92-1.1-2.69c-0.29-0.52-0.76-0.56-1.24-0.4c-0.52,0.17-0.52,0.65-0.52,1.1c-0.01,4.04,0.4,8.06,0.29,12.1
			c0,0.08,0,0.16,0.02,0.24c0.08,0.45,0.23,0.93,0.78,0.89c0.47-0.04,0.6-0.47,0.61-0.9c0.01-0.44,0.01-0.88,0.01-1.32
			c0-1.24,0-2.47,0-4.04c1.05,1.56,1.47,2.98,1.88,4.39c0.1,0.34,0.2,0.81,0.65,0.71c0.46-0.1,0.36-0.58,0.27-0.91
			c-0.43-1.63-1-3.22-2-4.58c-0.34-0.46-0.41-0.67-0.03-1.07C160.51,47.01,160.33,45.79,159.86,44.55z M99,35.18
			c-0.09,0.85-0.17,1.7,0.14,2.74c1.72-2.12,3.77-3.63,5.7-5.29c0.66-0.57,1.32-1.15,1.91-1.8c0.64-0.7,0.44-1.18-0.52-1.47
			c-2.23-0.87-4.45-1.73-6.67-2.61c-0.71-0.28-0.95-0.04-0.91,0.67C98.78,30.01,98.89,32.59,99,35.18z M88.59,21.37
			c-0.03-0.04-0.06-0.08-0.08-0.11c0,0.02,0,0.06,0.01,0.07c0.02,0.02,0.06,0.02,0.09,0.03c0.08,0.26,0.14,0.53,0.24,0.79
			c1.44,3.58,3.63,6.74,5.48,10.09c0.95,1.73,1.83,3.49,2.88,5.48c0.14-4.13-0.35-7.94-0.45-11.75c-0.01-0.5-0.34-0.67-0.7-0.86
			c-1.2-0.63-2.38-1.31-3.6-1.9C91.17,22.57,90.01,21.69,88.59,21.37z M165.37,37.68c0.87-0.11,1.73-0.23,2.6-0.31
			c0.72-0.06,0.99-0.37,1.02-1.13c0.12-3.66,0.2-7.33,0-10.99c-0.19-3.47,0.46-2.72-3.05-2.24c-2.46-0.2-4.79,0.47-7.12,1.1
			c-3.66,0.64-7.32,1.26-10.97,1.91c-9.64,1.73-19.33,3.02-29.15,3.04c-2.36,0.01-4.71,0.15-7.07,0.24
			c-0.46,0.02-0.97-0.08-0.85,0.74c0.55,3.92,0.83,7.86,0.98,11.81c0.04,1.03,0.39,1.12,1.3,1.01c4.87-0.57,9.76-1.03,14.64-1.57
			c3.33-0.37,6.71-0.22,10.04-0.59c8.09-0.9,16.17-1.94,24.28-2.66C163.13,37.92,164.28,38.06,165.37,37.68z M147.1,51.99
			c0.16,0.66,0.32,1.32,0.48,1.98c0.1,0.39,0.18,0.91,0.65,0.87c0.45-0.04,0.49-0.59,0.52-0.97c0.16-1.83,0.15-3.67,0.09-5.51
			c-0.05-1.54-0.01-3.09-0.01-4.63c0.41,0.12,1.05-0.02,1,0.88c-0.19,3.24,0.29,6.46,0.54,9.68c0.05,0.58-0.21,1.6,0.6,1.58
			c0.97-0.03,0.61-1.06,0.53-1.65c-0.39-3.21-0.62-6.43-0.52-9.67c0.02-0.61,0.01-1.11,0.82-1.15c0.45-0.02,1.12-0.04,1.05-0.69
			c-0.08-0.76-0.79-0.42-1.26-0.48c-1.16-0.16-2.35,0.84-3.5-0.16c-0.23-0.2-0.5,0.19-0.55,0.46c-0.06,0.39-0.06,0.79-0.05,1.18
			c0.05,1.33,0.27,2.65,0.02,4.01c-0.2-0.34-0.32-0.69-0.39-1.06c-0.24-1.09-0.45-2.19-0.7-3.28c-0.08-0.36-0.25-0.74-0.67-0.74
			c-0.51-0.01-0.6,0.45-0.69,0.84c-0.04,0.19-0.05,0.4-0.01,0.6c0.24,1.15,0.1,2.31,0.17,3.46c0.15,2.31,0.32,4.62,0.5,6.93
			c0.03,0.39,0.08,0.95,0.54,0.95c0.57,0,0.55-0.6,0.55-1.02c0-0.8-0.07-1.59-0.1-2.39C146.86,52,146.98,51.99,147.1,51.99z
			 M155.29,16.09c-0.28-0.01-0.56-0.04-0.83-0.04c-7.71,0.02-15.42,0.46-23.12,0.8c-3.87,0.17-7.73,0.49-11.59,0.79
			c-6.21,0.49-12.42,1-18.62,1.57c-2.43,0.22-4.9,0.01-7.32,0.63c2.03,0.86,3.6,2.48,6.24,2.1c6.36-0.92,12.82-0.81,19.21-1.52
			c4.32-0.48,8.65-0.88,12.98-1.3c4.92-0.47,9.85-0.9,14.78-1.37c2.89-0.28,5.82-0.13,8.67-0.89c1.38-0.01,2.73-0.25,4.29-0.48
			c-0.65-0.46-1.06-0.98-1.73-0.73C157.28,16.01,156.27,15.92,155.29,16.09z M158.3,18.48c-2.21-0.04-4.34,0.64-6.53,0.72
			c-4.59,0.15-9.16,0.64-13.73,1.04c-5.21,0.46-10.4,1.06-15.61,1.58c-5.72,0.56-11.45,1.09-17.2,1.27
			c-1.13,0.03-2.25,0.21-3.6,0.34c0.32,0.25,0.43,0.37,0.56,0.42c2.17,0.81,4.34,1.61,6.52,2.43c0.39,0.15,0.78,0.18,1.18,0.1
			c2.29-0.44,4.61-0.51,6.92-0.58c10.44-0.35,20.8-1.39,31.06-3.46c4.11-0.83,8.26-1.45,12.33-2.47c1.47-0.24,2.94-0.49,4.58-0.76
			C162.63,17.43,160.45,18.13,158.3,18.48z M164.84,58.75c-0.78,0.11-1.55,0.22-2.33,0.33c-2.11,0.17-4.23,0.23-6.32,0.53
			c-8.91,1.3-17.88,1.85-26.85,2.5c-5.67,0.41-11.29,1.07-16.88,2.08c-0.79,0.14-1.01,0.48-1.07,1.24
			c-0.31,4.26-0.63,8.53-1.04,12.79c-1.06,10.79-1.71,21.6-2.02,32.43c-0.3,10.48-0.03,20.95,0.58,31.42
			c0.46,7.94,0.97,15.88,1.77,23.79c0.32,3.14,0.82,3.47,3.8,2.41c0.07-0.02,0.12-0.1,0.18-0.15c0.23,0.06,0.43,0,0.62-0.13
			c1.57-0.2,3.13-0.45,4.64-0.96c0.24-0.01,0.47-0.02,0.71-0.03c1.87-0.16,3.73-0.32,5.6-0.49c6.91-0.62,13.83-1.28,20.74-1.84
			c5.13-0.42,10.27-0.65,15.13-2.6c0.37,0.11,0.72,0.01,1.07-0.09c2.94-0.11,5.89-0.22,8.73-1.13c1.04-0.1,2.09-0.21,3.13-0.31
			c1.24,0.27,1.52-0.23,1.41-1.44c-0.14-1.5-0.08-3.04,0.03-4.55c0.31-4.27,0.37-8.54-0.09-12.81c-0.26-2.42-0.45-4.85-0.63-7.28
			c-0.74-9.88-1.55-19.76-2.87-29.58c-1.27-9.43-2.24-18.88-2.95-28.36c-0.44-5.9-0.96-11.78-1.42-17.68
			c-0.05-0.63-0.19-0.85-0.86-0.67C166.72,58.41,165.77,58.56,164.84,58.75z M103.99,134.87c-0.34-7.1-0.2-14.21-0.26-21.32
			c0.13-3.57,0.26-7.13,0.39-10.7c0.08-1.11,0.16-2.22,0.23-3.33c0.26-3.97,0.53-7.93,0.79-11.9c0.71-7.76,1.43-15.52,2.11-23.29
			c0.76-8.62,0.73-17.25,0.27-25.88c0.05-0.31,0.16-0.71-0.11-0.9c-0.31-0.22-0.58,0.16-0.83,0.32c-0.91,0.58-1.76,1.23-2.6,1.91
			c-1.53,1.22-2.77,2.85-4.95,3.19c-0.98,0.15-1.53,0-1.98-0.78c-0.24-0.42-0.49-0.83-0.66-1.27c-1.17-2.9-2.64-5.64-4.15-8.37
			c-0.86-1.56-1.83-3.06-2.9-4.84c0,0.49-0.02,0.65,0,0.8c0.73,3.93,1.05,7.91,1.41,11.88c0.31,3.34,0.45,6.69,0.53,10.05
			c0.12,4.71,0.33,9.43,0.3,14.14c-0.03,4.59-0.47,9.18-0.35,13.77c0.04,1.48,0.06,2.96,0,4.44c-0.3,6.74-0.67,13.48-0.95,20.22
			c-0.18,4.39-0.1,8.79-0.18,13.19c-0.13,7.43-0.21,14.86,0.08,22.3c0.26,6.74,0.81,13.49,0.52,20.24
			c-0.09,2.04,1.01,3.22,2.47,3.96c3.92,1.99,8.1,3.4,12.21,4.95c0.62,0.24,0.93,0.22,0.84-0.66c-0.86-7.74-1.41-15.5-1.81-23.28
			c-0.12-2.39-0.25-4.78-0.38-7.17C104.03,135.98,104.01,135.42,103.99,134.87z M131.29,52.69c1.25,0.91,1.45,2.38,1.74,3.82
			c0.09,0.44,0.11,1.2,0.63,1.11c0.61-0.1,0.4-0.83,0.34-1.33c-0.22-1.82-0.86-3.49-1.95-4.95c-0.51-0.68-0.61-1.21-0.16-2.01
			c0.81-1.4,0.71-2.91,0.02-4.37c-0.22-0.46-0.43-1.02-1.05-1.01c-0.63,0.01-0.93,0.55-1.23,1.02c-0.23,0.36-0.14,0.77-0.15,1.17
			c-0.04,3.64,0.82,7.21,0.83,10.85c0,0.37-0.01,0.94,0.52,0.91c0.48-0.03,0.46-0.58,0.46-0.97
			C131.3,55.51,131.29,54.09,131.29,52.69z M115.57,54.69c0.09,1.04,0.13,1.96,0.27,2.86c0.07,0.5-0.08,1.39,0.66,1.32
			c0.67-0.06,0.49-0.89,0.46-1.43c-0.21-3.48-0.83-6.9-1.55-10.31c-0.12-0.57-0.11-1.53-0.92-1.43c-0.73,0.09-0.63,1.01-0.65,1.63
			c-0.1,3.8-0.18,7.59-0.26,11.39c-0.01,0.28-0.01,0.56,0.02,0.84c0.02,0.27,0.05,0.61,0.41,0.6c0.29-0.01,0.34-0.32,0.35-0.55
			c0.06-1,0.14-2,0.11-2.99C114.43,55.78,114.67,55.16,115.57,54.69z M134.56,48.6c0.02,0.35,0.02,0.63,0.05,0.91
			c0.17,1.94,0.33,3.89,0.53,5.83c0.05,0.47,0.18,1.04,0.66,1.2c0.58,0.2,0.75-0.45,1.06-0.78c2.74-2.91,1.09-9.26-1.65-11.5
			c-0.27-0.22-0.58-0.49-0.96-0.21c-0.33,0.25-0.45,0.71-0.25,0.96C134.93,46.14,134.4,47.45,134.56,48.6z M161.57,46.42
			c-0.06,1.26,0.07,3.1,0.25,4.92c0.13,1.26,0.26,2.54,0.68,3.74c0.32,0.94,0.64,0.93,1.32,0.25c0.62-0.61,0.71-1.31,0.7-2.08
			c-0.03-2.68-0.32-5.34-0.62-7.99c-0.13-1.18-0.35-2.37-0.96-3.44c-0.22-0.39-0.62-0.63-0.97-0.59c-0.37,0.05-0.39,0.55-0.4,0.89
			C161.55,43.37,161.57,44.61,161.57,46.42z M126.41,51.57c-0.06,0-0.11,0-0.17,0c0,1.96-0.01,3.92,0.01,5.88
			c0,0.34-0.02,0.82,0.48,0.8c0.38-0.01,0.41-0.45,0.44-0.75c0.06-0.68,0.12-1.36,0.11-2.04c-0.01-0.58,0.37-0.85,0.78-0.9
			c0.56-0.06,0.32,0.51,0.39,0.8c0.14,0.62,0.15,1.27,0.31,1.89c0.11,0.46,0,1.3,0.62,1.22c0.56-0.07,0.38-0.86,0.33-1.36
			c-0.41-3.86-1.29-7.64-2.1-11.44c-0.09-0.41-0.14-1.03-0.7-0.96c-0.52,0.06-0.49,0.66-0.49,1.09
			C126.4,47.73,126.41,49.65,126.41,51.57z M122.29,45.59c-0.66,0.45-0.61,0.84-0.62,1.18c-0.05,3.32,0.26,6.61,0.87,9.88
			c0.08,0.43,0.23,0.86,0.43,1.24c0.43,0.8,0.97,0.8,1.38,0.01c0.18-0.35,0.32-0.73,0.42-1.12c0.74-2.98,0.61-6.02,0.51-9.05
			c0-0.16-0.06-0.32-0.12-0.46c-0.09-0.22-0.18-0.49-0.47-0.45c-0.27,0.04-0.37,0.3-0.38,0.54c-0.02,0.52-0.01,1.03,0,1.55
			c0.08,2.43,0.13,4.85-0.58,7.24C122.86,52.74,122.48,49.25,122.29,45.59z M141.07,45.19c0.13,1.88,0.26,3.99,0.42,6.1
			c0.12,1.63,0.25,3.26,0.41,4.89c0.05,0.54,0.26,1.03,0.86,1.17c0.53,0.13,1.04,0.05,1.43-0.39c0.27-0.31,0.48-0.68,0.29-1.09
			c-0.17-0.38-0.55-0.26-0.85-0.19c-0.61,0.15-0.78-0.15-0.79-0.69c-0.01-0.4-0.04-0.8-0.11-1.19c-0.08-0.46-0.07-0.74,0.54-0.75
			c0.75-0.02,1-0.61,1-1.25c0-0.7-0.41-1.15-1.13-1.1c-0.58,0.04-0.65-0.23-0.68-0.69c-0.07-1.2-0.14-2.39-0.26-3.58
			c-0.07-0.66-0.13-1.24,0.61-1.62c0.36-0.18,0.56-0.6,0.27-1.02c-0.23-0.35-0.59-0.37-0.96-0.26
			C141.39,43.73,140.89,44.1,141.07,45.19z M155.44,50.53c-1.18-0.3-1.19-0.3-1.19-1.26c0-1.56,0.02-3.12,0.04-4.67
			c0-0.54,0.04-1.01,0.69-1.23c0.39-0.14,0.97-0.48,0.73-0.92c-0.29-0.52-0.92-0.26-1.39-0.05c-0.41,0.17-0.59,0.52-0.65,0.94
			c-0.63,3.86-0.73,7.71,0.11,11.55c0.03,0.12,0.05,0.24,0.1,0.34c0.22,0.49,0.63,0.56,1.1,0.48c0.33-0.06,0.68-0.22,0.72-0.54
			c0.07-0.6-0.47-0.36-0.77-0.44c-0.24-0.07-0.3-0.24-0.31-0.44C154.54,53.01,153.74,51.61,155.44,50.53z M140.9,53.52
			c-0.1-2.92-0.54-5.81-0.92-8.7c-0.08-0.6,0.06-1.64-0.64-1.57c-0.78,0.08-0.52,1.1-0.45,1.74c0.43,3.77,0.95,7.53,0.93,11.34
			c0,0.2,0.04,0.4,0.09,0.59c0.07,0.3,0.11,0.71,0.52,0.68c0.4-0.03,0.45-0.43,0.46-0.74C140.91,55.75,140.9,54.63,140.9,53.52z"/>
		<path class="st2" d="M119.93,167.03c-1.51,0.51-3.07,0.76-4.64,0.95c0.06-0.43,0.22-0.88,0.16-1.3
			c-0.52-3.59-1.08-7.18-1.63-10.77c-0.08-0.53-0.33-0.95-0.94-0.82c-0.56,0.12-0.56,0.61-0.5,1.07c0.15,1.07,0.27,2.14,0.48,3.2
			c0.58,2.93,0.77,5.93,1.81,8.76c-0.06,0.05-0.11,0.12-0.18,0.15c-2.98,1.06-3.48,0.74-3.8-2.41c-0.81-7.92-1.32-15.85-1.77-23.79
			c-0.6-10.47-0.87-20.94-0.58-31.42c0.31-10.83,0.96-21.64,2.02-32.43c0.42-4.26,0.73-8.52,1.04-12.79
			c0.06-0.77,0.28-1.1,1.07-1.24c5.59-1.01,11.21-1.68,16.88-2.08c8.97-0.64,17.94-1.19,26.85-2.5c2.09-0.31,4.21-0.36,6.32-0.53
			c0.16,1.56-0.21,3.09-0.22,4.64c-0.02,2.99-0.03,5.98,0,8.97c0.01,1.47,0.03,2.93,0.16,4.4c0.15,1.72,0.28,3.49-0.11,5.21
			c-1.36-2.59-2.96-5.02-4.73-7.35c-3.04-4-7.08-6.22-12.08-5.94c-5.07,0.29-9.9,1.96-14.37,4.27c-5.44,2.81-9.13,7.42-11.81,12.86
			c-2.72,5.53-4.04,11.41-4.45,17.54c-0.38,5.7,0.16,11.25,2.3,16.59c1.19,2.96,2.9,5.5,5.53,7.38c6.05,4.31,12.88,4.93,19.85,3.65
			c9.1-1.67,15.35-7.04,18.77-15.72c1.52-3.87,2.39-7.86,3.03-11.93c0.34,0.2,0.27,0.54,0.31,0.85c0.17,1.5,0.35,2.99,0.53,4.49
			c0.38,3.15,0.78,6.29,1.14,9.45c0.35,3.07,0.6,6.16,1.03,9.22c0.43,3.07,0.61,6.16,0.89,9.24c0.19,2.06,0.32,4.12,0.54,6.17
			c0.27,2.52,0.57,5.04,0.91,7.56c0.47,3.46,0.04,7.11,2.17,10.21c-2.84,0.91-5.78,1.02-8.73,1.13c0.43-3.11,0.16-6.23,0.07-9.34
			c-0.02-0.53-0.08-1.15-0.75-1.17c-0.71-0.02-0.68,0.66-0.77,1.16c-0.05,0.27-0.08,0.56-0.09,0.83c-0.06,2.88-0.04,5.76,0.47,8.61
			c-4.86,1.96-10,2.19-15.13,2.6c-6.92,0.56-13.83,1.22-20.74,1.84c-1.86,0.17-3.73,0.33-5.59,0.49c0.04-0.32,0.13-0.63,0.12-0.95
			c-0.08-4.09-1.01-8.05-1.9-12.02c-0.09-0.4-0.32-0.8-0.8-0.73c-0.54,0.08-0.67,0.55-0.62,1.01c0.13,1.27,0.25,2.54,0.47,3.79
			C118.42,161.11,118.52,164.22,119.93,167.03z M156.67,159.58c0.2,0.34,0.4,0.67,0.59,1.01c0.1,0.18,0.18,0.39,0.41,0.33
			c0.11-0.03,0.23-0.22,0.25-0.36c0.28-2.43,0.07-4.83-0.49-7.2c-0.07-0.28-0.28-0.5-0.61-0.48c-0.41,0.03-0.52,0.35-0.5,0.68
			c0.03,0.91,0.1,1.82,0.15,2.73c-0.13,0.01-0.27,0.01-0.4,0.02c-0.2-0.73-0.37-1.47-0.6-2.19c-0.16-0.48-0.46-0.89-1.05-0.73
			c-0.54,0.14-0.59,0.63-0.53,1.07c0.13,0.9,0.3,1.81,0.49,2.7c0.21,0.97,0.22,2,0.76,2.87c0.41,0.66,0.85,0.82,1.21-0.06
			C156.46,159.85,156.56,159.71,156.67,159.58z M148.85,143.29c-0.01-4.6-3.3-7.97-7.29-7.42c-3.3,0.46-5.77,2.07-7.23,5.18
			c-1.49,3.18-0.73,6.43,2.18,8.41c2.94,2,5.9,1.44,8.79-0.15C147.67,148.02,148.96,146.06,148.85,143.29z M165.47,160.54
			c0.56-1.06,0.27-1.92,0.38-2.73c0.39-3.04-0.08-6.04-0.57-9.03c-0.06-0.34-0.16-0.81-0.6-0.77c-0.53,0.04-0.49,0.55-0.49,0.93
			c0.01,2.59-0.16,5.2,0.24,7.77C164.62,157.92,164.78,159.19,165.47,160.54z M160.38,161.78c0.16-0.37,0.29-0.58,0.34-0.8
			c0.68-3.24,0.18-6.42-0.56-9.58c-0.07-0.31-0.26-0.67-0.65-0.56c-0.35,0.1-0.36,0.49-0.38,0.81c-0.09,2.6-0.02,5.19,0.13,7.79
			C159.31,160.27,159.6,161.06,160.38,161.78z M151.88,161.08c-0.19-2.52-0.22-4.92-0.59-7.29c-0.06-0.39-0.04-0.89-0.59-0.89
			c-0.58,0-0.63,0.51-0.68,0.96c-0.28,2.44,0.02,4.87,0.11,7.3c0.03,0.71,0.09,1.88,0.96,1.81
			C152.06,162.88,151.74,161.69,151.88,161.08z M134.96,157.33c-0.07,1.79,0.02,3.58,0.4,5.33c0.11,0.49,0.42,1.12,0.96,1.03
			c0.44-0.07,0.5-0.74,0.55-1.21c0.01-0.08,0.01-0.16,0.01-0.24c0.02-1.71-0.16-3.42-0.39-5.11c-0.1-0.78-0.38-1.54-0.62-2.3
			c-0.09-0.28-0.2-0.71-0.57-0.67c-0.42,0.04-0.32,0.49-0.33,0.78C134.94,155.74,134.96,156.53,134.96,157.33z M115.43,157.66
			c0.2,2.11,0.49,4.24,1.01,6.34c0.12,0.48,0.22,1.19,0.89,1.05c0.57-0.12,0.44-0.77,0.39-1.24c-0.26-2.1-0.53-4.2-0.82-6.29
			c-0.09-0.63,0.13-1.64-0.81-1.58C115.13,155.99,115.58,157,115.43,157.66z M169.28,155.45c-0.01,0-0.02,0-0.03,0
			c0-1.15,0.01-2.31,0-3.46c0-0.44,0.02-1-0.58-0.99c-0.56,0.01-0.6,0.56-0.61,1c-0.01,2.07-0.02,4.14,0,6.21
			c0,0.31,0.1,0.63,0.19,0.93c0.09,0.31,0.21,0.66,0.6,0.63c0.43-0.03,0.42-0.44,0.42-0.74
			C169.29,157.83,169.28,156.64,169.28,155.45z M133.29,162.08c-0.46-2.26-0.76-4.63-1.41-6.92c-0.09-0.33-0.21-0.8-0.66-0.68
			c-0.33,0.09-0.32,0.52-0.28,0.84c0.33,2.36,0.75,4.71,1.33,7.02c0.09,0.36,0.22,0.89,0.72,0.77
			C133.4,163.01,133.2,162.5,133.29,162.08z M145.46,157.5c-0.02,0-0.03,0-0.05,0.01c0.17,1.58,0.31,3.16,0.53,4.73
			c0.06,0.42,0.16,1.15,0.71,1.07c0.51-0.08,0.39-0.81,0.38-1.24c-0.05-1.75-0.28-3.49-0.67-5.2c-0.12-0.5,0-1.44-0.62-1.37
			c-0.76,0.08-0.18,0.91-0.27,1.4C145.43,157.1,145.46,157.3,145.46,157.5z M142.8,163.86c0.3-0.04,0.34-0.22,0.34-0.36
			c0.1-2.67-0.23-5.33-0.4-7.99c-0.02-0.27-0.12-0.62-0.47-0.57c-0.39,0.06-0.39,0.44-0.4,0.76c-0.06,2.08,0.2,4.13,0.36,6.2
			C142.28,162.59,142.38,163.3,142.8,163.86z M139.75,161.99c-0.43-2-0.9-4.22-1.38-6.44c-0.04-0.2-0.18-0.43-0.4-0.36
			c-0.4,0.11-0.37,0.49-0.31,0.8c0.37,2.12,0.74,4.24,1.15,6.36c0.06,0.32,0.16,0.81,0.63,0.71
			C139.82,162.97,139.71,162.53,139.75,161.99z M128.48,157.94c-0.11,0.23-0.25,0.37-0.23,0.49c0.3,1.88,0.61,3.76,0.96,5.62
			c0.1,0.51,0.13,1.38,0.82,1.22c0.64-0.14,0.35-0.96,0.27-1.48C129.99,161.8,129.41,159.87,128.48,157.94z M124.97,159.54
			c0.02,2.11,0.07,4.19,1.35,6.21C126.88,164.17,126.16,160.88,124.97,159.54z M122.29,163.08c0.32-2.41-0.59-6.88-1.63-7.89
			C121.11,157.97,121.29,160.61,122.29,163.08z"/>
		<path class="st3" d="M103.73,113.55c0.05,7.11-0.08,14.22,0.26,21.32c-0.98,0.49-0.96,0.89,0.06,1.67
			c0.13,2.39,0.26,4.78,0.38,7.17c0.39,7.78,0.95,15.54,1.81,23.28c0.1,0.88-0.21,0.89-0.84,0.66c-4.11-1.55-8.29-2.96-12.21-4.95
			c-1.46-0.74-2.56-1.92-2.47-3.96c0.29-6.75-0.25-13.5-0.52-20.24c-0.29-7.44-0.21-14.87-0.08-22.3c0.08-4.4,0-8.79,0.18-13.19
			c0.28-6.74,0.65-13.48,0.95-20.22c0.07-1.48,0.04-2.96,0-4.44c-0.12-4.6,0.33-9.18,0.35-13.77c0.03-4.71-0.18-9.43-0.3-14.14
			c-0.09-3.35-0.23-6.7-0.53-10.05c-0.36-3.97-0.69-7.95-1.41-11.88c-0.03-0.15,0-0.31,0-0.8c1.07,1.78,2.04,3.28,2.9,4.84
			c1.51,2.73,2.98,5.48,4.15,8.37c0.18,0.44,0.43,0.86,0.66,1.27c0.45,0.79,1,0.94,1.98,0.78c2.18-0.34,3.42-1.97,4.95-3.19
			c0.84-0.68,1.69-1.33,2.6-1.91c0.25-0.16,0.52-0.54,0.83-0.32c0.27,0.19,0.15,0.58,0.11,0.9c-1.21-0.05-1.04,0.84-1.06,1.58
			c-0.15,5.27-0.13,10.54-0.58,15.79c-0.24,2.79-0.06,5.6-0.32,8.38c-0.69,7.44-1.03,14.89-0.76,22.36
			c0.01,0.36-0.15,0.83,0.35,1.05c-0.26,3.97-0.53,7.93-0.79,11.9c-0.07,1.11-0.15,2.22-0.23,3.33c-0.81,0.11-1,0.72-1.06,1.37
			c-0.15,1.5-0.33,3.01-0.36,4.51C102.66,110.4,102.77,112.08,103.73,113.55z M93.89,56.65c0.03,0.57,0.02,1.37,0.09,2.16
			c0.15,1.63,1.58,2.34,2.37,3.49c1.15,1.67,3.14,1.46,3.98-0.41c1.01-2.24,1.22-4.67,1.12-7.12c-0.09-2.27-1.49-3.79-3.05-5.17
			c-1.37-1.2-3.71-0.32-4.01,1.48C94.11,52.86,93.86,54.63,93.89,56.65z"/>
		<path class="st2" d="M162.02,38.07c-8.11,0.73-16.19,1.76-24.28,2.66c-3.33,0.37-6.71,0.22-10.04,0.59
			c-4.88,0.54-9.77,0.99-14.64,1.57c-0.91,0.11-1.26,0.02-1.3-1.01c-0.15-3.95-0.42-7.9-0.98-11.81c-0.12-0.83,0.39-0.73,0.85-0.74
			c2.36-0.09,4.71-0.24,7.07-0.24c9.82-0.03,19.51-1.31,29.15-3.04c3.65-0.66,7.31-1.28,10.97-1.91c0.85,0.66,1.66,1.37,2.55,1.95
			c0.68,0.44,0.92,0.93,0.94,1.74C162.41,31.24,161.95,34.65,162.02,38.07z"/>
		<path class="st4" d="M164.84,58.75c0.93-0.19,1.88-0.34,2.8-0.58c0.67-0.18,0.81,0.05,0.86,0.67c0.46,5.89,0.98,11.78,1.42,17.68
			c0.71,9.48,1.68,18.93,2.95,28.36c1.33,9.82,2.13,19.7,2.87,29.58c0.18,2.43,0.37,4.86,0.63,7.28c0.46,4.27,0.4,8.53,0.09,12.81
			c-0.11,1.51-0.16,3.04-0.03,4.55c0.11,1.21-0.17,1.71-1.41,1.44c-0.12-1.68-0.73-3.23-1.25-4.8c-0.31-2.27-0.63-4.54-0.94-6.82
			c0.59-1.34,0.05-2.66-0.15-3.95c-1.54-9.84-2.28-19.76-3.01-29.68c-0.26-3.5-0.32-7.02-0.82-10.51
			c-1.03-7.24-1.99-14.49-1.81-21.83c0.06-2.24-0.07-4.49-0.4-6.69C165.78,70.45,164.96,64.64,164.84,58.75z M175.26,154.48
			c-0.01-0.44,0.04-0.97-0.55-1.03c-0.61-0.06-0.67,0.45-0.67,0.91c0,0.47-0.08,1.08,0.59,1.1
			C175.21,155.47,175.24,154.93,175.26,154.48z"/>
		<path class="st3" d="M164.84,58.75c0.12,5.89,0.94,11.7,1.81,17.51c0.33,2.21,0.45,4.45,0.4,6.69
			c-0.19,7.34,0.77,14.59,1.81,21.83c0.5,3.49,0.56,7.01,0.82,10.51c0.73,9.92,1.47,19.84,3.01,29.68c0.2,1.29,0.74,2.61,0.15,3.95
			c-0.62-0.79-1.02-0.33-1.07,0.31c-0.2,2.26-0.27,4.54,0.03,6.8c0.07,0.54,0.33,1.23,0.91,1.28c0.53,0.04,0.52-0.7,0.75-1.09
			c0.1-0.17,0.22-0.32,0.32-0.47c0.52,1.57,1.13,3.12,1.25,4.8c-1.04,0.1-2.09,0.21-3.13,0.31c-2.13-3.1-1.7-6.75-2.17-10.21
			c-0.34-2.51-0.64-5.03-0.91-7.56c-0.22-2.05-0.35-4.11-0.54-6.17c-0.28-3.08-0.46-6.17-0.89-9.24c-0.43-3.06-0.68-6.15-1.03-9.22
			c-0.36-3.15-0.76-6.3-1.14-9.45c-0.18-1.5-0.36-2.99-0.53-4.49c-0.04-0.31,0.03-0.65-0.31-0.85c0.03-0.52,0.04-1.04,0.11-1.55
			c0.92-6.78,0.63-13.42-2.14-19.8c0.39-1.73,0.27-3.5,0.11-5.21c-0.13-1.47-0.15-2.94-0.16-4.4c-0.03-2.99-0.02-5.98,0-8.97
			c0.01-1.55,0.37-3.08,0.22-4.64C163.29,58.97,164.06,58.86,164.84,58.75z"/>
		<path class="st2" d="M160.18,19.84c-4.07,1.03-8.22,1.64-12.33,2.47c-10.25,2.07-20.61,3.11-31.06,3.46
			c-2.31,0.08-4.64,0.15-6.92,0.58c-0.4,0.08-0.79,0.04-1.18-0.1c-2.17-0.81-4.35-1.61-6.52-2.43c-0.13-0.05-0.23-0.17-0.56-0.42
			c1.35-0.13,2.47-0.31,3.6-0.34c5.75-0.17,11.48-0.7,17.2-1.27c5.2-0.51,10.4-1.12,15.61-1.58c4.57-0.4,9.14-0.88,13.73-1.04
			c2.19-0.07,4.32-0.75,6.53-0.72C158.93,18.93,159.56,19.39,160.18,19.84z"/>
		<path class="st2" d="M155.66,16.86c-2.84,0.76-5.78,0.61-8.67,0.89c-4.92,0.47-9.85,0.9-14.78,1.37
			c-4.33,0.41-8.66,0.82-12.98,1.3c-6.39,0.71-12.85,0.6-19.21,1.52c-2.64,0.38-4.21-1.24-6.24-2.1c2.43-0.62,4.89-0.4,7.32-0.63
			c6.2-0.57,12.41-1.07,18.62-1.57c3.86-0.31,7.73-0.62,11.59-0.79c7.7-0.35,15.4-0.78,23.12-0.8c0.28,0,0.56,0.03,0.83,0.04
			C155.41,16.34,155.54,16.6,155.66,16.86z"/>
		<path class="st4" d="M105.14,87.62c-0.5-0.22-0.33-0.68-0.35-1.05c-0.26-7.47,0.07-14.92,0.76-22.36
			c0.26-2.78,0.08-5.59,0.32-8.38c0.45-5.25,0.43-10.53,0.58-15.79c0.02-0.74-0.15-1.63,1.06-1.58c0.45,8.63,0.48,17.26-0.27,25.88
			C106.57,72.1,105.84,79.86,105.14,87.62z"/>
		<path class="st0" d="M146.73,52c0.04,0.8,0.1,1.59,0.1,2.39c0,0.42,0.02,1.02-0.55,1.02c-0.45,0-0.51-0.56-0.54-0.95
			c-0.18-2.31-0.35-4.62-0.5-6.93c-0.08-1.15,0.07-2.32-0.17-3.46c-0.04-0.19-0.03-0.4,0.01-0.6c0.09-0.39,0.18-0.85,0.69-0.84
			c0.42,0.01,0.59,0.39,0.67,0.74c0.24,1.09,0.46,2.19,0.7,3.28c0.08,0.36,0.2,0.72,0.39,1.06c0.25-1.35,0.03-2.68-0.02-4.01
			c-0.02-0.39-0.02-0.8,0.05-1.18c0.04-0.27,0.32-0.67,0.55-0.46c1.15,1,2.34,0,3.5,0.16c0.47,0.07,1.18-0.28,1.26,0.48
			c0.07,0.65-0.6,0.67-1.05,0.69c-0.81,0.04-0.8,0.54-0.82,1.15c-0.1,3.24,0.13,6.46,0.52,9.67c0.07,0.59,0.44,1.62-0.53,1.65
			c-0.81,0.02-0.55-0.99-0.6-1.58c-0.25-3.22-0.73-6.43-0.54-9.68c0.05-0.89-0.59-0.75-1-0.88c0,1.54-0.04,3.09,0.01,4.63
			c0.06,1.84,0.07,3.67-0.09,5.51c-0.03,0.38-0.07,0.93-0.52,0.97c-0.47,0.04-0.55-0.48-0.65-0.87c-0.16-0.66-0.32-1.32-0.48-1.98
			c-0.08-0.4-0.16-0.79-0.24-1.19C146.6,51.25,146.6,51.62,146.73,52z M147.77,49.89c0.06-0.59,0.31-1.24-0.14-1.92
			C147.14,48.71,147.65,49.27,147.77,49.89z"/>
		<path class="st3" d="M162.02,38.07c-0.07-3.42,0.39-6.83,0.29-10.25c-0.02-0.81-0.26-1.31-0.94-1.74
			c-0.9-0.58-1.71-1.29-2.55-1.95c2.33-0.64,4.66-1.31,7.12-1.1c-0.51,4.87-0.31,9.78-0.57,14.66
			C164.28,38.06,163.13,37.92,162.02,38.07z"/>
		<path class="st3" d="M88.59,21.37c1.42,0.32,2.58,1.2,3.86,1.83c1.22,0.6,2.4,1.27,3.6,1.9c0.36,0.19,0.69,0.36,0.7,0.86
			c0.1,3.82,0.6,7.62,0.45,11.75c-1.04-1.99-1.93-3.75-2.88-5.48c-1.84-3.36-4.04-6.52-5.48-10.09c-0.1-0.25-0.16-0.52-0.24-0.79
			L88.59,21.37z"/>
		<path class="st4" d="M165.37,37.68c0.26-4.88,0.06-9.78,0.57-14.66c3.5-0.49,2.86-1.24,3.05,2.23c0.2,3.66,0.12,7.32,0,10.99
			c-0.03,0.76-0.3,1.07-1.02,1.13C167.11,37.44,166.24,37.57,165.37,37.68z"/>
		<path class="st3" d="M99,35.18c-0.12-2.59-0.22-5.17-0.35-7.76c-0.04-0.72,0.2-0.95,0.91-0.67c2.22,0.88,4.45,1.74,6.67,2.61
			C103.54,30.95,101.43,33.26,99,35.18z"/>
		<path class="st0" d="M131.29,52.69c0,1.4,0.01,2.82-0.01,4.24c0,0.39,0.02,0.94-0.46,0.97c-0.53,0.04-0.52-0.54-0.52-0.91
			c-0.01-3.64-0.87-7.21-0.83-10.85c0-0.4-0.09-0.8,0.15-1.17c0.3-0.47,0.6-1.01,1.23-1.02c0.63-0.01,0.83,0.54,1.05,1.01
			c0.69,1.46,0.78,2.96-0.02,4.37c-0.46,0.8-0.36,1.33,0.16,2.01c1.1,1.46,1.73,3.13,1.95,4.95c0.06,0.49,0.27,1.22-0.34,1.33
			c-0.52,0.09-0.54-0.66-0.63-1.11C132.74,55.07,132.53,53.6,131.29,52.69z M130.66,48.78c0.6-0.7,0.76-1.34,0.66-2.03
			c-0.05-0.38-0.08-0.98-0.49-0.96c-0.54,0.02-0.5,0.59-0.44,1.03C130.47,47.41,130.55,48,130.66,48.78z"/>
		<path class="st0" d="M115.57,54.69c-0.9,0.47-1.14,1.09-1.11,1.93c0.03,1-0.06,2-0.11,2.99c-0.01,0.23-0.06,0.54-0.35,0.55
			c-0.37,0.01-0.39-0.32-0.41-0.6c-0.02-0.28-0.02-0.56-0.02-0.84c0.08-3.8,0.16-7.59,0.26-11.39c0.02-0.61-0.09-1.53,0.65-1.63
			c0.82-0.11,0.8,0.85,0.92,1.43c0.72,3.4,1.34,6.83,1.55,10.31c0.03,0.53,0.22,1.37-0.46,1.43c-0.73,0.07-0.58-0.82-0.66-1.32
			C115.7,56.65,115.66,55.73,115.57,54.69z M115.4,53.66c-0.08-0.53-0.15-1.03-0.24-1.53c-0.09-0.47-0.2-0.93-0.3-1.39
			C114.29,52.92,114.4,53.42,115.4,53.66z"/>
		<path class="st0" d="M159.86,44.55c0.48,1.24,0.66,2.45-0.39,3.52c-0.38,0.39-0.31,0.6,0.03,1.07c1,1.36,1.57,2.95,2,4.58
			c0.09,0.33,0.19,0.82-0.27,0.91c-0.44,0.09-0.55-0.37-0.65-0.71c-0.41-1.41-0.83-2.83-1.88-4.39c0,1.57,0,2.81,0,4.04
			c0,0.44,0,0.88-0.01,1.32c-0.01,0.43-0.14,0.86-0.61,0.9c-0.55,0.04-0.69-0.44-0.78-0.89c-0.01-0.08-0.02-0.16-0.02-0.24
			c0.11-4.04-0.3-8.06-0.29-12.1c0-0.45,0-0.93,0.52-1.1c0.48-0.16,0.95-0.12,1.24,0.4c-0.09,0.11-0.19,0.22-0.28,0.34
			c-0.23,1.69,0,3.39,0.02,5.08c0,0.17-0.09,0.4,0.21,0.45c0.3,0.05,0.36-0.15,0.49-0.36c0.58-0.89,0.13-1.86,0.25-2.78
			C159.59,44.58,159.72,44.57,159.86,44.55z"/>
		<path class="st0" d="M134.56,48.6c-0.15-1.15,0.37-2.46-0.56-3.59c-0.21-0.25-0.08-0.72,0.25-0.96c0.38-0.28,0.69-0.01,0.96,0.21
			c2.74,2.24,4.39,8.6,1.65,11.5c-0.31,0.33-0.47,0.98-1.06,0.78c-0.48-0.16-0.62-0.73-0.66-1.2c-0.2-1.94-0.36-3.89-0.53-5.83
			C134.58,49.23,134.57,48.95,134.56,48.6z M136.25,54.11c1.21-1.61,0.95-5.62-0.28-6.69c-0.13-0.12-0.29-0.2-0.42-0.1
			c-0.1,0.08-0.17,0.29-0.13,0.41C135.99,49.74,135.93,51.85,136.25,54.11z"/>
		<path class="st0" d="M161.57,46.42c0-1.81-0.02-3.05,0.01-4.29c0.01-0.34,0.03-0.84,0.4-0.89c0.35-0.04,0.75,0.2,0.97,0.59
			c0.6,1.07,0.82,2.26,0.96,3.44c0.3,2.66,0.59,5.32,0.62,7.99c0.01,0.77-0.08,1.47-0.7,2.08c-0.68,0.67-1,0.69-1.32-0.25
			c-0.41-1.21-0.55-2.48-0.68-3.74C161.64,49.52,161.51,47.69,161.57,46.42z M163.28,54.06c-0.05,0.31-0.09,0.62,0.14,1.01
			c0-0.41,0-0.72,0-1.02c0.04-3.03-0.27-6.04-0.74-9.03C162.95,48.03,162.54,51.09,163.28,54.06z"/>
		<path class="st0" d="M126.41,51.57c0-1.92-0.01-3.84,0.01-5.76c0-0.43-0.03-1.03,0.49-1.09c0.55-0.07,0.61,0.55,0.7,0.96
			c0.81,3.79,1.69,7.57,2.1,11.44c0.05,0.49,0.23,1.28-0.33,1.36c-0.62,0.08-0.51-0.76-0.62-1.22c-0.15-0.62-0.17-1.27-0.31-1.89
			c-0.06-0.29,0.18-0.86-0.39-0.8c-0.4,0.04-0.79,0.32-0.78,0.9c0.01,0.68-0.05,1.36-0.11,2.04c-0.03,0.31-0.06,0.74-0.44,0.75
			c-0.5,0.02-0.47-0.46-0.48-0.8c-0.02-1.96-0.01-3.92-0.01-5.88C126.3,51.57,126.35,51.57,126.41,51.57z M127.3,50.18
			c0,0.75,0,1.49,0,2.24c0,0.31,0.12,0.56,0.47,0.54c0.36-0.03,0.27-0.33,0.23-0.54C127.85,51.67,127.84,50.88,127.3,50.18z"/>
		<path class="st0" d="M122.29,45.59c0.19,3.66,0.57,7.14,1.45,10.56c0.72-2.39,0.66-4.81,0.58-7.24c-0.02-0.52-0.02-1.04,0-1.55
			c0.01-0.24,0.11-0.5,0.38-0.54c0.29-0.04,0.38,0.23,0.47,0.45c0.06,0.14,0.11,0.31,0.12,0.46c0.1,3.03,0.23,6.07-0.51,9.05
			c-0.1,0.38-0.23,0.77-0.42,1.12c-0.41,0.79-0.96,0.79-1.38-0.01c-0.2-0.38-0.35-0.81-0.43-1.24c-0.61-3.26-0.92-6.55-0.87-9.88
			C121.68,46.43,121.63,46.04,122.29,45.59z"/>
		<path class="st0" d="M119.93,167.03c-1.41-2.81-1.51-5.92-2.03-8.93c-0.22-1.25-0.34-2.53-0.47-3.79
			c-0.05-0.46,0.08-0.93,0.62-1.01c0.49-0.07,0.71,0.34,0.8,0.73c0.89,3.97,1.82,7.93,1.9,12.02c0.01,0.31-0.08,0.63-0.12,0.95
			C120.4,167,120.16,167.01,119.93,167.03z"/>
		<path class="st0" d="M141.07,45.19c-0.19-1.1,0.32-1.47,1.05-1.67c0.38-0.11,0.73-0.09,0.96,0.26c0.28,0.43,0.09,0.84-0.27,1.02
			c-0.74,0.38-0.68,0.95-0.61,1.62c0.12,1.19,0.2,2.39,0.26,3.58c0.03,0.46,0.1,0.73,0.68,0.69c0.72-0.05,1.13,0.4,1.13,1.1
			c0,0.64-0.25,1.23-1,1.25c-0.61,0.02-0.62,0.3-0.54,0.75c0.07,0.39,0.1,0.79,0.11,1.19c0.01,0.54,0.18,0.83,0.79,0.69
			c0.3-0.07,0.68-0.18,0.85,0.19c0.19,0.41-0.02,0.78-0.29,1.09c-0.38,0.44-0.89,0.52-1.43,0.39c-0.6-0.14-0.81-0.64-0.86-1.17
			c-0.16-1.63-0.29-3.26-0.41-4.89C141.34,49.18,141.2,47.07,141.07,45.19z"/>
		<path class="st0" d="M166.36,43.28c-0.59,1.87,0,3.72,0.06,5.58c0.01,0.28,0.28,0.36,0.46,0.51c1.25,1.03,1.57,3.5,0.63,4.81
			c-0.26,0.36-0.56,0.69-1.03,0.78c-0.45,0.08-0.92,0.09-1.1-0.45c-0.18-0.52,0.21-0.74,0.61-0.84c1.17-0.31,1.1-1.22,1.06-2.11
			c-0.04-0.81-0.05-1.61-1.21-1.69c-0.47-0.03-0.66-0.54-0.75-0.99c-0.37-1.97-0.66-3.95-0.19-5.94c0.05-0.19,0.1-0.39,0.19-0.57
			c0.31-0.66,0.65-1.41,1.54-1.23c0.94,0.2,1.02,1.01,0.94,1.82c-0.03,0.27-0.09,0.55-0.14,0.85c-0.46,0.07-0.48-0.51-0.84-0.52
			C166.52,43.1,166.44,43.1,166.36,43.28z"/>
		<path class="st4" d="M99,35.18c2.42-1.92,4.54-4.23,7.23-5.82c0.96,0.29,1.16,0.77,0.52,1.47c-0.59,0.65-1.25,1.23-1.91,1.8
			c-1.93,1.66-3.98,3.17-5.7,5.29C98.84,36.88,98.92,36.03,99,35.18z"/>
		<path class="st0" d="M114.66,168.12c-1.05-2.83-1.23-5.84-1.81-8.76c-0.21-1.06-0.33-2.13-0.48-3.2c-0.06-0.45-0.06-0.94,0.5-1.07
			c0.61-0.14,0.86,0.28,0.94,0.82c0.55,3.59,1.11,7.18,1.63,10.77c0.06,0.42-0.1,0.86-0.16,1.3
			C115.1,168.11,114.89,168.18,114.66,168.12z"/>
		<path class="st0" d="M120.19,57.5c-0.09,0.12-0.2,0.24-0.27,0.37c-0.21,0.43-0.13,1.2-0.8,1.14c-0.75-0.06-0.73-0.86-0.85-1.41
			c-0.77-3.61-1.25-7.23-0.65-10.92c0.13-0.76,0.1-1.89,1.07-1.89c0.93-0.01,0.94,1.12,1.15,1.87c0.16,0.58,0.26,1.17,0.18,1.77
			c-0.03,0.2-0.13,0.41-0.34,0.43c-0.23,0.01-0.32-0.19-0.37-0.4c-0.16-0.67-0.04-1.4-0.5-2.24c-0.5,1.72-0.49,3.29-0.39,4.84
			c0.12,1.99,0.43,3.96,0.63,5.94c0.1,0.98,0.48,0.49,0.85,0.19C119.99,57.29,120.09,57.4,120.19,57.5z"/>
		<path class="st0" d="M155.44,50.53c-1.7,1.08-0.9,2.48-0.83,3.76c0.01,0.2,0.07,0.38,0.31,0.44c0.3,0.08,0.84-0.17,0.77,0.44
			c-0.04,0.33-0.39,0.49-0.72,0.54c-0.47,0.08-0.88,0.01-1.1-0.48c-0.05-0.11-0.07-0.23-0.1-0.34c-0.84-3.84-0.74-7.69-0.11-11.55
			c0.07-0.42,0.25-0.77,0.65-0.94c0.48-0.2,1.11-0.47,1.39,0.05c0.24,0.43-0.35,0.78-0.73,0.92c-0.65,0.23-0.68,0.7-0.69,1.23
			c-0.01,1.56-0.03,3.12-0.04,4.67C154.25,50.23,154.26,50.23,155.44,50.53z"/>
		<path class="st0" d="M162.1,162.06c-0.5-2.85-0.53-5.73-0.47-8.61c0.01-0.28,0.04-0.56,0.09-0.83c0.09-0.5,0.06-1.17,0.77-1.16
			c0.67,0.02,0.74,0.64,0.75,1.17c0.09,3.11,0.36,6.23-0.07,9.34C162.82,162.07,162.47,162.17,162.1,162.06z"/>
		<path class="st0" d="M140.9,53.52c0,1.12,0.01,2.24-0.01,3.36c-0.01,0.31-0.06,0.71-0.46,0.74c-0.41,0.03-0.45-0.38-0.52-0.68
			c-0.05-0.19-0.09-0.39-0.09-0.59c0.02-3.81-0.51-7.57-0.93-11.34c-0.07-0.64-0.33-1.66,0.45-1.74c0.7-0.07,0.57,0.97,0.64,1.57
			C140.36,47.71,140.8,50.59,140.9,53.52z"/>
		<path class="st4" d="M103.73,113.55c-0.97-1.47-1.08-3.14-1.04-4.81c0.03-1.51,0.21-3.01,0.36-4.51c0.07-0.65,0.26-1.27,1.06-1.37
			C103.99,106.41,103.86,109.98,103.73,113.55z"/>
		<path class="st4" d="M160.18,19.84c-0.63-0.46-1.25-0.91-1.88-1.37c2.15-0.35,4.33-1.05,6.46,0.61
			C163.12,19.35,161.65,19.6,160.18,19.84z"/>
		<path class="st0" d="M119.89,57.19c0.22-0.68,0.51-1.35,0.51-2.09c0-0.52,0.03-1.02-0.63-1.26c-0.48-0.18-0.57-0.65-0.44-1.12
			c0.1-0.38,0.35-0.65,0.77-0.63c0.5,0.02,0.82,0.35,0.94,0.8c0.44,1.66-0.27,3.12-0.85,4.6C120.09,57.4,119.99,57.29,119.89,57.19z
			"/>
		<path class="st4" d="M155.66,16.86c-0.12-0.26-0.25-0.52-0.37-0.77c0.98-0.17,1.99-0.07,2.94-0.44c0.66-0.25,1.07,0.27,1.73,0.73
			C158.39,16.61,157.04,16.85,155.66,16.86z"/>
		<path class="st4" d="M159.86,44.55c-0.14,0.01-0.27,0.02-0.41,0.04c-0.34-0.79-0.28-1.74-0.97-2.39c0.09-0.11,0.18-0.22,0.28-0.34
			C159.43,42.64,159.81,43.53,159.86,44.55z"/>
		<path class="st2" d="M104.05,136.53c-1.03-0.77-1.04-1.18-0.06-1.67C104.01,135.42,104.03,135.98,104.05,136.53z"/>
		<path class="st3" d="M146.73,52c-0.13-0.37-0.13-0.75,0.13-1.19c0.08,0.4,0.16,0.79,0.24,1.19C146.98,51.99,146.86,52,146.73,52z"
			/>
		<path class="st3" d="M88.61,21.35c-0.03-0.01-0.06-0.01-0.09-0.03c-0.01-0.01-0.01-0.04-0.01-0.07c0.03,0.04,0.06,0.08,0.08,0.11
			C88.59,21.37,88.61,21.35,88.61,21.35z"/>
		<path class="st3" d="M166.36,43.28c0.08-0.18,0.16-0.18,0.23,0.01c0,0-0.12,0.01-0.12,0.01L166.36,43.28z"/>
		<path class="st1" d="M162.34,82.31c2.77,6.38,3.06,13.02,2.14,19.8c-0.07,0.51-0.07,1.03-0.11,1.55
			c-0.64,4.07-1.51,8.06-3.03,11.93c-3.41,8.69-9.67,14.05-18.77,15.72c-6.97,1.28-13.8,0.66-19.85-3.65
			c-2.63-1.87-4.34-4.42-5.53-7.38c-2.14-5.34-2.68-10.89-2.3-16.59c0.41-6.13,1.73-12.01,4.45-17.54
			c2.68-5.44,6.37-10.05,11.81-12.86c4.48-2.31,9.3-3.99,14.37-4.27c5-0.28,9.04,1.94,12.08,5.94
			C159.38,77.29,160.98,79.72,162.34,82.31z M156.3,115.48c0.82-1.58,1.39-3.06,1.86-4.58c1.04-3.33,1.55-6.77,1.88-10.22
			c0.32-3.3,0.39-6.6-0.05-9.92c-0.68-5.03-3.11-9.18-6.16-13.06c-2.65-3.37-6.08-4.66-10.3-3.72c-2.37,0.53-4.72,1.44-7.12,1.56
			c-2.45,0.12-4.25,1.19-6.01,2.57c-4.5,3.53-7.22,8.31-9.11,13.56c-1.88,5.24-2.31,10.72-2.25,16.28c0.05,4.18,1.07,8.05,2.76,11.8
			c0.48,1.05,0.98,2.16,2.09,2.84c0.08-0.18,0.15-0.28,0.17-0.39c0.81-4.47,2.56-8.38,6.47-11.03c0.46-0.31,0.32-0.54-0.05-0.81
			c-0.85-0.65-1.38-1.55-1.87-2.46c-0.29-0.53-0.59-0.82-1.26-0.88c-2.02-0.18-3.53-1.62-3.96-3.63c-0.44-2.01,0.52-4.69,2.27-5.37
			c1.17-0.45,1.15-1.08,1.05-1.98c-0.07-0.59,0.2-1.18-0.55-1.67c-2.92-1.91-3.04-6.29-0.26-8.41c2.29-1.75,4.74-1.93,7.3-0.59
			c0.52,0.27,1.03,0.69,1.68,0.45c4.09-1.56,8.28-1.17,12.53-0.96c4.72,0.23,7.07,3.49,9.55,6.72c0.05,0.06,0.05,0.15,0.08,0.22
			c1.04,2.57,1.35,5.27,1.14,7.99c-0.29,3.68-1.08,7.19-4.29,9.6c-0.32,0.24-0.57,0.56-0.87,0.83c-0.28,0.26-0.4,0.5,0,0.76
			C154.61,112.02,155.43,113.63,156.3,115.48z M137.38,127.4c4.66,0.19,9.1-1.36,13.1-4.27c1.23-0.89,2.41-1.85,3.3-3.11
			c0.23-0.32,0.61-0.68,0.47-1.06c-0.64-1.75-0.98-3.64-2.33-5.07c-0.89-0.95-2.19-1.14-3.32-0.53c-4.42,2.4-8.95,2.38-13.48,0.41
			c-2.1-0.92-2.27-1.02-3.98,0.56c-0.53,0.48-1.02,1.02-1.45,1.59c-1.87,2.47-2.57,5.36-2.94,8.37c-0.08,0.66,0.26,0.91,0.76,1.17
			C130.52,127,133.74,127.41,137.38,127.4z M150.35,107.3c1.62-0.31,2.7-1.21,3.46-2.6c0.62-1.14,0.82-2.53,2.04-3.31
			c0.12-0.08,0.14-0.36,0.16-0.55c0.25-1.91,0.34-3.83-0.02-5.73c-0.29-1.53-0.72-3.05-1.83-4.23c-0.37-0.39-0.77-0.85-1.42-0.71
			c-2.65,0.54-5.28,1.18-7.95,1.59c-4.44,0.69-8.6,1.97-12.17,4.82c-0.61,0.49-1.21,1.04-0.95,1.76c0.65,1.81,0.42,3.73,0.9,5.54
			c0.27,1.02,0.35,2.19,1.28,2.89c1.18,0.89,2.4,1.73,3.63,2.54c1.07,0.71,1.95,0.44,2.48-0.71c0.49-1.08,1.18-1.93,2.46-2.01
			c0.87-0.06,1.76-0.1,2.63,0.09c1.56,0.33,2.88-0.38,4.19-1.03c0.72-0.36,0.81-0.87,0.13-1.48c-0.79-0.71-1.71-1.15-2.69-1.53
			c-0.43-0.17-0.81-0.45-0.68-0.99c0.14-0.59,0.65-0.68,1.15-0.59c1,0.17,1.88,0.64,2.68,1.26c2.29,1.78,2.39,2.63,0.57,4.78
			C150.38,107.11,150.38,107.16,150.35,107.3z M128.7,103.93c-0.08-0.82-0.2-1.65-0.24-2.49c-0.03-0.6-0.2-0.98-0.84-1.09
			c-0.59-0.11-0.98,0.09-1.29,0.6c-0.98,1.64-0.2,3.34,1.68,3.63C128.53,104.66,128.92,104.63,128.7,103.93z M143.62,110.55
			c1.55-0.12,2.86-0.25,3.91-1.17c0.17-0.15,0.43-0.32,0.25-0.58c-0.1-0.14-0.37-0.29-0.5-0.25c-1.38,0.46-2.83,0.32-4.24,0.5
			c-0.39,0.05-0.65,0.35-0.69,0.72c-0.05,0.45,0.35,0.58,0.69,0.68C143.3,110.53,143.58,110.54,143.62,110.55z"/>
		<path class="st5" d="M148.85,143.29c0.11,2.77-1.18,4.73-3.55,6.03c-2.89,1.59-5.85,2.15-8.79,0.15
			c-2.91-1.98-3.67-5.23-2.18-8.41c1.45-3.11,3.93-4.72,7.23-5.18C145.55,135.32,148.84,138.69,148.85,143.29z"/>
		<path class="st0" d="M165.47,160.54c-0.7-1.34-0.86-2.61-1.04-3.83c-0.4-2.57-0.23-5.18-0.24-7.77c0-0.39-0.04-0.89,0.49-0.93
			c0.44-0.03,0.55,0.43,0.6,0.77c0.49,2.99,0.96,5.98,0.57,9.03C165.75,158.62,166.04,159.48,165.47,160.54z"/>
		<path class="st0" d="M160.38,161.78c-0.79-0.72-1.07-1.51-1.12-2.34c-0.14-2.59-0.22-5.19-0.13-7.79
			c0.01-0.33,0.03-0.71,0.38-0.81c0.39-0.11,0.57,0.24,0.65,0.56c0.74,3.16,1.24,6.34,0.56,9.58
			C160.67,161.2,160.54,161.41,160.38,161.78z"/>
		<path class="st0" d="M151.88,161.08c-0.14,0.62,0.18,1.81-0.78,1.89c-0.87,0.07-0.93-1.1-0.96-1.81c-0.09-2.43-0.39-4.87-0.11-7.3
			c0.05-0.44,0.09-0.96,0.68-0.96c0.54,0,0.53,0.51,0.59,0.89C151.66,156.16,151.69,158.56,151.88,161.08z"/>
		<path class="st0" d="M134.96,157.33c0-0.8-0.02-1.59,0.01-2.38c0.01-0.28-0.08-0.74,0.33-0.78c0.37-0.04,0.48,0.39,0.57,0.67
			c0.24,0.76,0.51,1.52,0.62,2.3c0.23,1.69,0.4,3.39,0.39,5.11c0,0.08,0,0.16-0.01,0.24c-0.05,0.48-0.12,1.14-0.55,1.21
			c-0.54,0.08-0.86-0.54-0.96-1.03C134.98,160.91,134.88,159.12,134.96,157.33z"/>
		<path class="st0" d="M115.43,157.66c0.14-0.65-0.3-1.67,0.65-1.73c0.95-0.06,0.73,0.95,0.81,1.58c0.28,2.1,0.56,4.19,0.82,6.29
			c0.06,0.47,0.18,1.12-0.39,1.24c-0.67,0.14-0.77-0.56-0.89-1.05C115.92,161.9,115.64,159.77,115.43,157.66z"/>
		<path class="st0" d="M156.35,159.99c-0.36,0.88-0.8,0.72-1.21,0.06c-0.54-0.87-0.56-1.9-0.76-2.87c-0.19-0.89-0.36-1.79-0.49-2.7
			c-0.06-0.44-0.02-0.92,0.53-1.07c0.6-0.16,0.9,0.25,1.05,0.73c0.23,0.72,0.4,1.46,0.6,2.18
			C156.13,157.55,156.52,158.74,156.35,159.99z"/>
		<path class="st0" d="M156.47,156.31c-0.05-0.91-0.12-1.82-0.15-2.73c-0.01-0.33,0.1-0.65,0.5-0.68c0.32-0.03,0.54,0.2,0.61,0.48
			c0.56,2.37,0.77,4.77,0.49,7.2c-0.01,0.13-0.14,0.33-0.25,0.36c-0.23,0.06-0.32-0.15-0.41-0.33c-0.19-0.34-0.39-0.67-0.59-1.01
			C156.91,158.47,156.55,157.4,156.47,156.31z"/>
		<path class="st0" d="M169.28,155.45c0,1.19,0.01,2.38-0.01,3.58c0,0.31,0.01,0.71-0.42,0.74c-0.39,0.03-0.51-0.33-0.6-0.63
			c-0.09-0.3-0.19-0.62-0.19-0.93c-0.02-2.07-0.01-4.14,0-6.21c0-0.44,0.04-0.99,0.61-1c0.6-0.01,0.57,0.55,0.58,0.99
			c0.01,1.15,0,2.31,0,3.46C169.26,155.45,169.27,155.45,169.28,155.45z"/>
		<path class="st0" d="M133.29,162.08c-0.08,0.42,0.11,0.93-0.3,1.03c-0.5,0.12-0.63-0.41-0.72-0.77c-0.59-2.31-1-4.66-1.33-7.02
			c-0.04-0.32-0.06-0.75,0.28-0.84c0.45-0.12,0.57,0.35,0.66,0.68C132.53,157.45,132.83,159.82,133.29,162.08z"/>
		<path class="st0" d="M145.46,157.5c0-0.2-0.03-0.4,0.01-0.6c0.09-0.49-0.49-1.32,0.27-1.4c0.62-0.06,0.5,0.87,0.62,1.37
			c0.39,1.71,0.62,3.44,0.67,5.2c0.01,0.43,0.13,1.16-0.38,1.24c-0.55,0.08-0.65-0.65-0.71-1.07c-0.22-1.57-0.36-3.16-0.53-4.73
			C145.43,157.51,145.44,157.5,145.46,157.5z"/>
		<path class="st0" d="M142.8,163.86c-0.42-0.56-0.52-1.28-0.57-1.96c-0.16-2.06-0.42-4.12-0.36-6.2c0.01-0.32,0.01-0.7,0.4-0.76
			c0.35-0.05,0.46,0.3,0.47,0.57c0.17,2.66,0.5,5.31,0.4,7.99C143.14,163.65,143.1,163.82,142.8,163.86z"/>
		<path class="st0" d="M139.75,161.99c-0.05,0.55,0.06,0.98-0.32,1.06c-0.47,0.1-0.57-0.39-0.63-0.71c-0.4-2.12-0.78-4.24-1.15-6.36
			c-0.05-0.31-0.08-0.68,0.31-0.8c0.22-0.06,0.36,0.17,0.4,0.36C138.85,157.77,139.33,159.99,139.75,161.99z"/>
		<path class="st0" d="M128.48,157.94c0.93,1.93,1.51,3.86,1.82,5.86c0.08,0.52,0.37,1.33-0.27,1.48c-0.69,0.15-0.73-0.72-0.82-1.22
			c-0.36-1.87-0.66-3.75-0.96-5.62C128.23,158.31,128.37,158.17,128.48,157.94z"/>
		<path class="st0" d="M124.97,159.54c1.19,1.34,1.9,4.63,1.35,6.21C125.05,163.73,124.99,161.64,124.97,159.54z"/>
		<path class="st0" d="M122.29,163.08c-0.99-2.47-1.18-5.11-1.63-7.89C121.69,156.21,122.61,160.68,122.29,163.08z"/>
		<path class="st5" d="M156.47,156.31c0.09,1.09,0.44,2.16,0.2,3.27c-0.11,0.14-0.21,0.27-0.32,0.41c0.17-1.24-0.22-2.44-0.28-3.66
			C156.2,156.32,156.33,156.31,156.47,156.31z"/>
		<path class="st5" d="M93.89,56.65c-0.03-2.02,0.22-3.79,0.51-5.56c0.29-1.81,2.64-2.68,4.01-1.48c1.57,1.37,2.97,2.9,3.05,5.17
			c0.1,2.45-0.12,4.87-1.12,7.12c-0.84,1.87-2.83,2.08-3.98,0.41c-0.79-1.15-2.22-1.86-2.37-3.49
			C93.9,58.02,93.92,57.23,93.89,56.65z"/>
		<path class="st0" d="M173.77,155.74c-0.11,0.16-0.23,0.31-0.32,0.47c-0.23,0.4-0.22,1.14-0.75,1.09
			c-0.58-0.05-0.84-0.74-0.91-1.28c-0.3-2.26-0.23-4.54-0.03-6.8c0.06-0.64,0.46-1.1,1.07-0.31
			C173.15,151.19,173.46,153.46,173.77,155.74z"/>
		<path class="st0" d="M175.26,154.48c-0.02,0.45-0.05,0.99-0.63,0.98c-0.68-0.02-0.59-0.63-0.59-1.1c0-0.46,0.06-0.97,0.67-0.91
			C175.3,153.5,175.25,154.04,175.26,154.48z"/>
		<path class="st4" d="M147.77,49.89c-0.12-0.62-0.63-1.18-0.14-1.92C148.08,48.65,147.82,49.3,147.77,49.89z"/>
		<path class="st1" d="M130.66,48.78c-0.11-0.78-0.19-1.37-0.27-1.96c-0.06-0.44-0.1-1.01,0.44-1.03c0.41-0.01,0.44,0.59,0.49,0.96
			C131.42,47.45,131.26,48.08,130.66,48.78z"/>
		<path class="st1" d="M115.4,53.66c-1-0.24-1.11-0.74-0.54-2.92c0.1,0.46,0.21,0.93,0.3,1.39
			C115.25,52.63,115.32,53.13,115.4,53.66z"/>
		<path class="st1" d="M158.48,42.2c0.69,0.65,0.63,1.6,0.97,2.39c-0.12,0.92,0.33,1.89-0.25,2.78c-0.13,0.21-0.19,0.41-0.49,0.36
			c-0.3-0.05-0.21-0.27-0.21-0.45C158.48,45.59,158.26,43.9,158.48,42.2z"/>
		<path class="st1" d="M136.25,54.11c-0.32-2.26-0.26-4.37-0.83-6.39c-0.03-0.12,0.04-0.33,0.13-0.41c0.12-0.1,0.28-0.01,0.42,0.1
			C137.2,48.49,137.45,52.5,136.25,54.11z"/>
		<path class="st1" d="M163.28,54.06c-0.75-2.97-0.33-6.03-0.61-9.04c0.47,2.99,0.78,5.99,0.74,9.03c0,0-0.07-0.05-0.07-0.05
			L163.28,54.06z"/>
		<path class="st4" d="M163.28,54.06l0.06-0.07c0,0,0.07,0.05,0.07,0.05c0,0.31,0,0.61,0,1.02
			C163.2,54.68,163.24,54.37,163.28,54.06z"/>
		<path class="st3" d="M127.3,50.18c0.54,0.7,0.55,1.49,0.7,2.24c0.04,0.21,0.13,0.51-0.23,0.54c-0.35,0.03-0.47-0.23-0.47-0.54
			C127.3,51.68,127.3,50.93,127.3,50.18z"/>
		<path class="st3" d="M156.3,115.48c-0.88-1.85-1.69-3.46-3.27-4.49c-0.4-0.26-0.28-0.5,0-0.76c0.29-0.27,0.55-0.59,0.87-0.83
			c3.21-2.41,4-5.93,4.29-9.6c0.21-2.72-0.1-5.42-1.14-7.99c-0.03-0.07-0.04-0.16-0.08-0.22c-2.48-3.23-4.82-6.48-9.55-6.72
			c-4.24-0.21-8.44-0.6-12.53,0.96c-0.65,0.25-1.16-0.17-1.68-0.45c-2.56-1.34-5.01-1.16-7.3,0.59c-2.78,2.12-2.65,6.51,0.26,8.41
			c0.75,0.49,0.48,1.08,0.55,1.67c0.1,0.9,0.12,1.53-1.05,1.98c-1.75,0.68-2.71,3.36-2.27,5.37c0.44,2.01,1.94,3.45,3.96,3.63
			c0.67,0.06,0.97,0.35,1.26,0.88c0.5,0.91,1.03,1.82,1.87,2.46c0.36,0.28,0.51,0.5,0.05,0.81c-3.91,2.64-5.67,6.56-6.47,11.03
			c-0.02,0.11-0.09,0.21-0.17,0.39c-1.12-0.68-1.62-1.79-2.09-2.84c-1.69-3.74-2.71-7.62-2.76-11.8
			c-0.06-5.56,0.37-11.04,2.25-16.28c1.89-5.25,4.61-10.03,9.11-13.56c1.76-1.38,3.56-2.45,6.01-2.57c2.39-0.12,4.74-1.03,7.12-1.56
			c4.21-0.95,7.65,0.34,10.3,3.72c3.04,3.88,5.48,8.03,6.16,13.06c0.45,3.32,0.37,6.62,0.05,9.92c-0.33,3.46-0.84,6.89-1.88,10.22
			C157.69,112.43,157.13,113.9,156.3,115.48z"/>
		<path class="st5" d="M137.38,127.4c-3.64,0-6.86-0.4-9.86-1.94c-0.5-0.26-0.85-0.51-0.76-1.17c0.37-3.01,1.08-5.89,2.94-8.37
			c0.43-0.57,0.92-1.11,1.45-1.59c1.71-1.58,1.88-1.47,3.98-0.56c4.53,1.97,9.05,1.99,13.48-0.41c1.13-0.61,2.43-0.42,3.32,0.53
			c1.34,1.42,1.69,3.32,2.33,5.07c0.14,0.38-0.24,0.74-0.47,1.06c-0.89,1.26-2.07,2.21-3.3,3.11
			C146.48,126.05,142.04,127.6,137.38,127.4z"/>
		<path class="st5" d="M150.35,107.3c0.03-0.13,0.03-0.18,0.05-0.21c1.82-2.14,1.72-3-0.57-4.78c-0.8-0.62-1.68-1.09-2.68-1.26
			c-0.5-0.08-1,0-1.15,0.59c-0.13,0.53,0.26,0.82,0.68,0.99c0.97,0.38,1.89,0.82,2.69,1.53c0.68,0.61,0.59,1.13-0.13,1.48
			c-1.31,0.65-2.63,1.36-4.19,1.03c-0.87-0.19-1.75-0.15-2.63-0.09c-1.27,0.08-1.96,0.94-2.46,2.01c-0.53,1.15-1.41,1.42-2.48,0.71
			c-1.23-0.81-2.45-1.65-3.63-2.54c-0.93-0.71-1.01-1.87-1.28-2.89c-0.48-1.81-0.25-3.73-0.9-5.54c-0.26-0.72,0.34-1.27,0.95-1.76
			c3.57-2.85,7.73-4.13,12.17-4.82c2.67-0.41,5.3-1.05,7.95-1.59c0.66-0.13,1.06,0.32,1.42,0.71c1.11,1.18,1.54,2.7,1.83,4.23
			c0.36,1.89,0.27,3.82,0.02,5.73c-0.03,0.19-0.04,0.48-0.16,0.55c-1.22,0.78-1.43,2.17-2.04,3.31
			C153.05,106.09,151.97,106.99,150.35,107.3z M140.44,94.61c-1.34,0.61-3,0.55-4.61,0.79c-0.86,0.13-1.38,0.78-1.41,1.7
			c-0.03,0.92,0.47,1.76,1.3,1.75c1.78-0.02,2.22,0.93,2.44,2.43c0.12,0.8,0.77,1.45,1.72,1.37c0.98-0.08,1.31-0.82,1.42-1.67
			c0.06-0.47,0.15-0.98,0.04-1.43c-0.19-0.73,0.05-1.14,0.63-1.56c0.73-0.52,0.89-1.33,0.59-2.15
			C142.24,94.99,141.51,94.68,140.44,94.61z M149.8,98.54c-0.02,0.84,0,1.56,0.26,2.25c0.2,0.52,0.59,0.86,1.16,0.92
			c0.58,0.07,1.11-0.16,1.29-0.67c0.4-1.11,0.95-2.27,0.37-3.45c-0.26-0.54-0.11-0.75,0.27-1.08c0.74-0.64,0.92-1.49,0.59-2.4
			c-0.34-0.91-1.06-1.39-2.02-1.46c-1.05-0.07-2.08,0.13-3.02,0.61c-0.84,0.43-1.34,1.14-1.28,2.13c0.06,0.94,0.56,1.67,1.44,1.85
			C149.79,97.42,150.07,97.8,149.8,98.54z"/>
		<path class="st5" d="M128.7,103.93c0.23,0.71-0.17,0.73-0.69,0.65c-1.88-0.28-2.66-1.98-1.68-3.63c0.3-0.51,0.7-0.71,1.29-0.6
			c0.64,0.11,0.81,0.49,0.84,1.09C128.5,102.28,128.62,103.11,128.7,103.93z"/>
		<path class="st5" d="M143.62,110.55c-0.04-0.01-0.32-0.01-0.58-0.09c-0.34-0.1-0.74-0.23-0.69-0.68c0.04-0.38,0.3-0.67,0.69-0.72
			c1.41-0.18,2.86-0.04,4.24-0.5c0.13-0.04,0.4,0.11,0.5,0.25c0.18,0.26-0.08,0.43-0.25,0.58
			C146.48,110.3,145.17,110.43,143.62,110.55z"/>
		<path class="st1" d="M140.44,94.61c1.07,0.07,1.8,0.38,2.11,1.23c0.3,0.83,0.14,1.63-0.59,2.15c-0.59,0.42-0.83,0.83-0.63,1.56
			c0.12,0.44,0.03,0.96-0.04,1.43c-0.11,0.85-0.44,1.59-1.42,1.67c-0.95,0.07-1.6-0.57-1.72-1.37c-0.22-1.49-0.65-2.45-2.44-2.43
			c-0.83,0.01-1.33-0.83-1.3-1.75c0.03-0.92,0.55-1.58,1.41-1.7C137.44,95.16,139.1,95.22,140.44,94.61z"/>
		<path class="st1" d="M149.8,98.54c0.27-0.74-0.01-1.12-0.94-1.3c-0.88-0.17-1.39-0.91-1.44-1.85c-0.06-0.99,0.44-1.7,1.28-2.13
			c0.94-0.48,1.97-0.68,3.02-0.61c0.96,0.06,1.68,0.55,2.02,1.46c0.34,0.9,0.16,1.75-0.59,2.4c-0.37,0.32-0.53,0.54-0.27,1.08
			c0.58,1.19,0.03,2.34-0.37,3.45c-0.18,0.51-0.72,0.74-1.29,0.67c-0.57-0.07-0.96-0.41-1.16-0.92
			C149.8,100.11,149.77,99.39,149.8,98.54z"/>
	</g>
</g>
</svg>
