<?xml version="1.0" encoding="utf-8"?>
<!-- Generator: Adobe Illustrator 23.0.1, SVG Export Plug-In . SVG Version: 6.00 Build 0)  -->
<svg version="1.1" id="Layer_1" xmlns="http://www.w3.org/2000/svg" xmlns:xlink="http://www.w3.org/1999/xlink" x="0px" y="0px"
	 viewBox="0 0 622 456" style="enable-background:new 0 0 622 456;" xml:space="preserve">
<g>
	<g>
		<path d="M248.6,156.68c27.57,0,55.15,0,82.72,0c6.43,0,6.45-10,0-10c-27.57,0-55.15,0-82.72,0
			C242.16,146.68,242.15,156.68,248.6,156.68L248.6,156.68z"/>
	</g>
</g>
<g>
	<g>
		<path d="M248.6,191.68c27.57,0,55.15,0,82.72,0c6.43,0,6.45-10,0-10c-27.57,0-55.15,0-82.72,0
			C242.16,181.68,242.15,191.68,248.6,191.68L248.6,191.68z"/>
	</g>
</g>
<g>
	<g>
		<g>
			<path d="M338.79,121.83c-15.93-5.1-31.56-11.04-46.81-17.91c-5.82-2.62-10.91,5.99-5.05,8.63c16.04,7.22,32.44,13.56,49.2,18.92
				C342.28,133.44,344.91,123.78,338.79,121.83L338.79,121.83z"/>
		</g>
	</g>
	<g>
		<g>
			<path d="M242.78,131.47c16.76-5.36,33.16-11.7,49.2-18.92c5.86-2.64,0.78-11.26-5.05-8.63c-15.25,6.87-30.88,12.82-46.81,17.91
				C234.02,123.78,236.63,133.44,242.78,131.47L242.78,131.47z"/>
		</g>
	</g>
</g>
</svg>
