<?xml version="1.0" encoding="utf-8"?>
<!-- Generator: Adobe Illustrator 23.0.1, SVG Export Plug-In . SVG Version: 6.00 Build 0)  -->
<svg version="1.1" id="Layer_1" xmlns="http://www.w3.org/2000/svg" xmlns:xlink="http://www.w3.org/1999/xlink" x="0px" y="0px"
	 viewBox="0 0 363 510" style="enable-background:new 0 0 363 510;" xml:space="preserve">
<style type="text/css">
	.st0{fill:#FFFFFF;}
</style>
<g>
	<g>
		<g>
			<path d="M79.17,236.97c19.5,19.5,39,39,58.49,58.49c4.56,4.56,11.63-2.51,7.07-7.07c-19.5-19.5-39-39-58.49-58.49
				C81.69,225.34,74.62,232.41,79.17,236.97L79.17,236.97z"/>
		</g>
	</g>
	<g>
		<g>
			<path d="M86.25,295.46c19.5-19.5,39-39,58.49-58.49c4.56-4.56-2.51-11.63-7.07-7.07c-19.5,19.5-39,39-58.49,58.49
				C74.62,292.95,81.69,300.02,86.25,295.46L86.25,295.46z"/>
		</g>
	</g>
</g>
<g>
	<g>
		<g>
			<path d="M160.79,219.83c-15.93-5.1-31.56-11.04-46.81-17.91c-5.82-2.62-10.91,5.99-5.05,8.63c16.04,7.22,32.44,13.56,49.2,18.92
				C164.28,231.44,166.91,221.78,160.79,219.83L160.79,219.83z"/>
		</g>
	</g>
	<g>
		<g>
			<path d="M64.78,229.47c16.76-5.36,33.16-11.7,49.2-18.92c5.86-2.64,0.78-11.26-5.05-8.63c-15.25,6.87-30.88,12.82-46.81,17.91
				C56.02,221.78,58.63,231.44,64.78,229.47L64.78,229.47z"/>
		</g>
	</g>
</g>
<g>
	<g>
		<path class="st0" d="M-47.68-49.5c160.13,0,320.26,0,480.43,0c0,199.93,0,399.88,0,599.9c-160.11,0-320.27,0-480.43,0
			C-47.68,350.47-47.68,150.5-47.68-49.5z M225.9,408.25c2-0.62,3.82-1.21,5.66-1.75c68.39-19.99,118.12-79.68,125.52-150.62
			c1.7-16.34,1.08-32.59-1.71-48.76c-3.99-23.14-12.42-44.58-25.05-64.38c-1.16-1.82-2.39-3.62-3.32-5.55
			c-1.03-2.15-2.1-4.38-2.51-6.69c-0.46-2.55-1.22-4.94-2.13-7.33c-4.31-11.36-8.59-22.73-12.9-34.08c-0.51-1.34-1.1-2.67-1.81-3.91
			c-1.56-2.71-3.96-4.09-7.09-4.19c-0.86-0.03-1.72,0-2.65,0c-0.53-2.85-0.69-5.47-0.3-8.1c0.65-4.4,0.61-8.8-0.38-13.12
			c-3.56-15.44-9.03-30.15-17.15-43.81c-1.79-3-4.27-5.13-7.48-6.47c-4.09-1.7-8.35-2.73-12.72-3.34
			c-8.19-1.14-16.43-1.1-24.67-0.99c-3.19,0.04-6.39,0.28-9.58,0.56c-6.98,0.6-12.46,4.23-17.38,8.88c-2.31,2.19-3.94,4.8-4.68,7.94
			c-0.19,0.81-0.6,1.56-0.93,2.4c-3.35-0.43-6.45-0.74-9.52-1.24c-3.83-0.62-7.39-1.95-10.57-4.27c-1.08-0.79-2.38-1.31-3.64-1.79
			c-4.39-1.67-6.6-0.28-6.81,4.43c-0.07,1.57-0.72,2.22-2.05,2.74c-5.66,2.2-11.29,4.49-16.93,6.74c-0.57,0.23-1.18,0.37-1.83,0.58
			c-0.51-0.95-0.92-1.81-1.42-2.62c-1.41-2.32-2.89-2.93-5.46-2.07c-1.51,0.5-2.94,1.24-4.4,1.89c-1.51,0.67-3.01,1.37-4.39,2
			c-3.1-2.66-4.57-3-8.09-1.63c-8.04,3.14-16.05,6.36-24.07,9.56c-3.01,1.2-5.37,3.16-6.81,6.1c-1.57,3.23-3.26,6.42-4.58,9.75
			c-1.99,5.05-3.71,10.21-5.54,15.33c-0.57,1.6-1.13,3.27-2.9,3.89c-1.43,0.5-2.16,1.53-2.78,2.79c-3.29,6.76-6.68,13.46-9.86,20.27
			c-1.72,3.69-3.95,6.87-6.94,9.65c-13.54,12.61-25.28,26.7-34.74,42.64C16.19,171.79,8.74,195.7,6.67,221.3
			c-0.71,8.78-0.75,17.57-0.19,26.37c0.74,11.68,2.32,23.22,5.15,34.58c7.68,30.83,23.21,57.15,45.71,79.43
			c4.32,4.27,8.92,8.25,13.49,12.27c2.48,2.18,3.82,4.67,4.03,8.07c0.18,2.91,0.97,5.83,1.8,8.65c0.78,2.65,2.4,3.29,5.03,2.45
			c0.67-0.21,1.34-0.42,2.19-0.69c0.58,1.24,1.13,2.37,1.66,3.51c0.7,1.52,1.73,2.78,3.39,3.18c1.71,0.41,2.54,1.45,2.99,3.02
			c0.22,0.76,0.58,1.49,0.88,2.23c1.62,3.95,3.56,7.69,6.65,10.73c3.99,3.93,7.91,7.85,10.28,13.13c1.48,3.28,5.81,3.26,7.86,0.27
			c0.3-0.44,0.6-0.88,1.05-1.55c0.44,1.14,0.77,2.01,1.11,2.88c0.54,1.42,1.01,2.87,1.65,4.24c1.14,2.43,2.32,3.12,4.97,2.66
			c1.87-0.33,3.64-0.16,5.45,0.23c3.11,0.67,5.98,0.42,8.52-1.89c0.87-0.79,2.24-1.2,3.45-1.42c1.29-0.24,2.66-0.05,4.13-0.05
			c0.09,0.34,0.2,0.8,0.33,1.24c0.32,1.15,0.51,2.36,0.98,3.45c1.63,3.77,5.71,4.33,8.25,1.14c0.74-0.92,1.35-2.01,1.76-3.11
			c0.74-2.02,1.31-4.1,1.91-6.17c0.37-1.29,0.83-2.49,2.33-3.1c0.18,1.6,0.23,3.05,0.54,4.44c0.5,2.25,0.93,4.56,1.83,6.66
			c1.04,2.42,3.03,2.9,5.37,1.67c0.83-0.44,1.59-1.04,2.5-1.65c2.72,2.39,5.45,2.2,8.24-0.57c0.68,0.83,1.15,1.61,1.8,2.18
			c3.12,2.73,5.89,2.19,7.71-1.51c0.46-0.93,0.75-1.93,1.1-2.91c0.27-0.74,0.51-1.49,0.8-2.35c0.85,0.4,1.54,0.76,2.26,1.06
			c2.08,0.87,3.26,0.56,4.6-1.2c0.29-0.38,0.63-0.77,0.76-1.21c0.96-3.22,3.06-4.2,6.4-4.2c4.36,0,7.86-1.99,9.53-6.38
			c0.08-0.2,0.31-0.34,0.45-0.48c0.21-0.03,0.37-0.09,0.52-0.07c4.31,0.37,6.67-1.62,7.28-6.1
			C225.41,412.45,225.63,410.47,225.9,408.25z M202.66,480.66c1.2,0.15,1.92,0.16,2.61,0.34c4.54,1.15,9.06,0.66,13.57-0.11
			c2.16-0.37,3.24-1.49,3.44-3.4c0.21-1.88-0.63-3.3-2.59-4.13c-1.1-0.46-2.27-0.77-3.42-1.1c-7.05-2.07-14.13-4.06-21.15-6.23
			c-5.82-1.8-10.88-4.97-15.25-9.24c-0.57-0.56-1.17-1.1-1.78-1.61c-1.51-1.26-3.24-1.73-5.16-1.21c-1.23,0.33-2.48,0.67-3.63,1.21
			c-4.41,2.07-8.84,4.12-13.15,6.38c-6.72,3.53-13.36,7.22-20.03,10.85c-0.42,0.23-0.84,0.47-1.22,0.76
			c-1.27,0.95-1.81,2.22-1.48,3.79c0.33,1.54,1.29,2.62,2.83,2.92c1.16,0.23,2.43,0.42,3.56,0.2c2.42-0.48,4.78-1.21,7.16-1.89
			c1.11-0.32,2.18-0.77,3.54-1.25c-0.1,1.18-0.18,1.96-0.24,2.75c-0.42,5.27-0.56,10.55,0.17,15.8c0.55,3.93,2.19,5.3,6.22,5.55
			c3.35,0.21,6.7,0.53,10.05,0.72c8.7,0.48,17.41,0.93,26.12,1.33c1.75,0.08,3.53,0,5.27-0.22c2.24-0.28,3.23-1.31,3.59-3.54
			c0.16-1.02,0.12-2.07,0.17-3.11C202.12,491.12,202.38,486.02,202.66,480.66z"/>
		<path d="M225.9,408.25c-0.27,2.22-0.49,4.2-0.76,6.17c-0.61,4.48-2.97,6.47-7.28,6.1c-0.15-0.01-0.31,0.04-0.52,0.07
			c-0.13,0.14-0.37,0.28-0.45,0.48c-1.66,4.39-5.17,6.37-9.53,6.38c-3.34,0-5.44,0.99-6.4,4.2c-0.13,0.44-0.47,0.83-0.76,1.21
			c-1.34,1.76-2.52,2.07-4.6,1.2c-0.72-0.3-1.41-0.66-2.26-1.06c-0.29,0.86-0.53,1.61-0.8,2.35c-0.35,0.98-0.64,1.98-1.1,2.91
			c-1.83,3.69-4.59,4.24-7.71,1.51c-0.65-0.57-1.12-1.34-1.8-2.18c-2.79,2.77-5.52,2.96-8.24,0.57c-0.91,0.61-1.66,1.21-2.5,1.65
			c-2.34,1.23-4.33,0.75-5.37-1.67c-0.9-2.1-1.33-4.41-1.83-6.66c-0.31-1.39-0.35-2.85-0.54-4.44c-1.5,0.61-1.95,1.8-2.33,3.1
			c-0.6,2.07-1.17,4.16-1.91,6.17c-0.41,1.11-1.02,2.19-1.76,3.11c-2.54,3.19-6.62,2.63-8.25-1.14c-0.47-1.09-0.66-2.3-0.98-3.45
			c-0.12-0.45-0.24-0.9-0.33-1.24c-1.47,0-2.84-0.18-4.13,0.05c-1.21,0.22-2.58,0.63-3.45,1.42c-2.54,2.3-5.41,2.56-8.52,1.89
			c-1.81-0.39-3.58-0.56-5.45-0.23c-2.65,0.46-3.84-0.23-4.97-2.66c-0.64-1.37-1.1-2.83-1.65-4.24c-0.33-0.87-0.67-1.74-1.11-2.88
			c-0.45,0.66-0.74,1.11-1.05,1.55c-2.05,2.99-6.38,3.01-7.86-0.27c-2.38-5.27-6.29-9.2-10.28-13.13
			c-3.09-3.04-5.03-6.78-6.65-10.73c-0.3-0.74-0.66-1.46-0.88-2.23c-0.46-1.57-1.28-2.61-2.99-3.02c-1.65-0.39-2.68-1.66-3.39-3.18
			c-0.53-1.14-1.07-2.27-1.66-3.51c-0.85,0.27-1.52,0.48-2.19,0.69c-2.63,0.84-4.25,0.2-5.03-2.45c-0.83-2.82-1.62-5.74-1.8-8.65
			c-0.21-3.4-1.55-5.89-4.03-8.07c-4.56-4.01-9.17-7.99-13.49-12.27c-22.5-22.28-38.04-48.6-45.71-79.43
			c-2.83-11.36-4.41-22.9-5.15-34.58c-0.56-8.8-0.52-17.59,0.19-26.37c2.07-25.6,9.52-49.51,22.65-71.62
			c9.46-15.94,21.2-30.03,34.74-42.64c2.99-2.78,5.22-5.96,6.94-9.65c3.17-6.81,6.57-13.52,9.86-20.27
			c0.61-1.26,1.34-2.29,2.78-2.79c1.77-0.62,2.33-2.29,2.9-3.89c1.83-5.12,3.54-10.28,5.54-15.33c1.32-3.33,3-6.52,4.58-9.75
			c1.43-2.94,3.8-4.9,6.81-6.1c8.02-3.2,16.03-6.42,24.07-9.56c3.52-1.38,4.98-1.04,8.09,1.63c1.38-0.63,2.88-1.33,4.39-2
			c1.46-0.65,2.89-1.39,4.4-1.89c2.57-0.86,4.05-0.25,5.46,2.07c0.49,0.81,0.91,1.67,1.42,2.62c0.65-0.2,1.26-0.35,1.83-0.58
			c5.64-2.25,11.27-4.53,16.93-6.74c1.34-0.52,1.98-1.17,2.05-2.74c0.21-4.71,2.42-6.1,6.81-4.43c1.26,0.48,2.56,1.01,3.64,1.79
			c3.18,2.32,6.74,3.66,10.57,4.27c3.07,0.49,6.17,0.81,9.52,1.24c0.33-0.83,0.74-1.59,0.93-2.4c0.74-3.14,2.37-5.75,4.68-7.94
			c4.92-4.66,10.4-8.28,17.38-8.88c3.19-0.27,6.38-0.51,9.58-0.56c8.24-0.11,16.48-0.15,24.67,0.99c4.37,0.61,8.63,1.64,12.72,3.34
			c3.21,1.33,5.69,3.46,7.48,6.47c8.12,13.66,13.59,28.37,17.15,43.81c0.99,4.32,1.04,8.72,0.38,13.12c-0.39,2.63-0.23,5.25,0.3,8.1
			c0.93,0,1.79-0.02,2.65,0c3.13,0.1,5.53,1.48,7.09,4.19c0.71,1.24,1.3,2.57,1.81,3.91c4.32,11.36,8.6,22.72,12.9,34.08
			c0.91,2.39,1.67,4.78,2.13,7.33c0.42,2.31,1.48,4.55,2.51,6.69c0.93,1.94,2.16,3.73,3.32,5.55c12.62,19.8,21.06,41.24,25.05,64.38
			c2.79,16.16,3.41,32.42,1.71,48.76c-7.4,70.95-57.12,130.64-125.52,150.62C229.72,407.03,227.9,407.63,225.9,408.25z
			 M77.47,335.94c0.14-0.01,0.29-0.03,0.43-0.04c0.07-0.74,0.15-1.49,0.19-2.23c0.22-3.83,0.4-7.66,0.64-11.49
			c0.11-1.81,0.68-3.37,2.17-4.62c0.73-0.61,1.12-1.69,1.49-2.63c0.31-0.81,0.33-1.72,0.56-2.57c0.36-1.32,1.14-2.45,2.53-2.6
			c1.6-0.18,2.31-1.08,3-2.35c1.06-1.97,2.8-2.83,5.02-2.31c1.19,0.28,2.15,0,3.18-0.57c2.1-1.14,4.26-2.19,6.42-3.21
			c1.35-0.64,2.46-1.49,3.11-2.85c0.83-1.75,2.24-2.88,3.91-3.74c2.06-1.06,4.1-2.14,6.18-3.15c0.47-0.23,1.06-0.22,1.6-0.27
			c4.45-0.37,8.86-0.8,12.78-3.29c2.08-1.32,3.2-0.93,4.5,1.26c0.59,1,1.14,2.03,1.81,3.25c1.16-0.93,2.08-1.68,3.01-2.41
			c0.86-0.68,1.93-1.22,2.88-0.62c2.34,1.47,4.56,0.8,6.91,0.1c0.92-0.28,2.19-0.35,2.98,0.08c2.35,1.27,4.27,0.62,6.24-0.76
			c3.07-2.15,3.98-2.12,7.09,0.03c0.12,0.08,0.3,0.07,0.46,0.09c4.26-1.9,4.26-1.9,8.9,2.79c0.95-0.39,1.87-0.9,2.85-1.15
			c1.07-0.27,2.21-0.29,3.31-0.46c1.03-0.16,2.19-0.12,3.03-0.6c1.64-0.94,2.96-0.56,4.46,0.26c1.92,1.04,4,1.07,6.05,0.35
			c0.74-0.26,1.4-0.75,2.1-1.13c2.64-1.46,4.51-1.04,6.11,1.53c0.8,1.28,1.35,2.71,2.05,4.06c0.27,0.53,0.62,1.03,0.97,1.6
			c1.07-0.65,1.93-1.23,2.84-1.72c2.21-1.19,3.43-0.95,5,1c0.5,0.62,0.86,1.35,1.35,1.98c0.49,0.62,0.94,1.41,1.6,1.73
			c2.22,1.09,3.19,3.03,3.94,5.19c1.97,5.66,3.94,11.32,5.93,16.97c0.33,0.95,0.6,2.01,1.68,2.06c0.94-1.6,1.65-3.12,2.64-4.44
			c1.15-1.54,3.11-1.35,4.94-1.7c0.09-0.95,0.21-1.81,0.23-2.67c0.04-1.44-0.02-2.88,0.01-4.32c0.05-2.74,1.16-4.77,3.86-5.74
			c0.37-0.13,0.71-0.35,1.06-0.52c0.08-0.26,0.19-0.49,0.22-0.72c0.48-3.94,1.84-5.93,6.95-4.2c0.23,0.08,0.45,0.17,0.68,0.23
			c0.88,0.26,1.77,0.51,2.89,0.83c0-1.18,0-2.05,0-2.92c0.02-2.32,0.01-4.64,0.06-6.96c0.04-1.72,0.7-3.11,2.32-3.89
			c1.65-0.8,3.25-0.39,4.47,0.72c1.28,1.16,2.28,2.63,3.34,4.01c0.46,0.6,0.76,1.31,1.09,1.91c2.26-0.55,2.85-1.9,2.86-3.82
			c0.01-3.03,0.19-6.07,0.31-9.1c0.1-2.36,1.33-3.86,3.56-4.57c0.89-0.28,1.77-0.61,2.73-0.95c-0.09-0.96-0.18-1.74-0.25-2.53
			c-0.23-2.79-0.56-5.57-0.63-8.36c-0.09-3.68,1.37-5.1,4.99-5.22c0.69-0.02,1.38-0.07,2.04-0.1c0.1-0.44,0.23-0.67,0.2-0.89
			c-0.52-3.87,0.53-7.25,2.96-10.29c0.49-0.62,0.67-1.6,0.73-2.44c0.11-1.67,0.01-3.36,0.06-5.04c0.05-1.6,0.55-3.09,2.05-3.82
			c1.89-0.93,2.29-2.46,2.35-4.33c0.11-3.2,0.11-6.42,0.55-9.57c1.04-7.37,1.69-14.76,1.98-22.2c0.42-10.89,0.15-21.75-0.86-32.59
			c-0.9-9.64-2.7-19.14-4.7-28.61c-1.66-7.85-3.73-15.54-7.78-22.56c-1.88-3.25-3.74-6.52-5.48-9.85
			c-2.51-4.82-5.89-8.88-9.97-12.47c-8.18-7.2-15.88-14.85-22.23-23.79c-2.92-4.12-6.97-7.02-11.53-9.15
			c-2.1-0.98-4.31-1.71-6.4-2.71c-3.72-1.77-7.61-2.17-11.67-2.1c-6.15,0.1-12.32,0.06-18.47-0.15c-4.58-0.15-9.15-0.08-13.59,0.97
			c-8,1.9-15.94,4.06-23.88,6.18c-14.74,3.94-29.47,7.91-44.2,11.9c-2.37,0.64-4.57,0.47-6.69-0.81c-0.67-0.4-1.38-0.72-2.18-1.13
			c-0.84,2.14-1.53,4.18-2.44,6.13c-2.8,6.01-5.62,12.02-8.55,17.97c-3.75,7.62-7.1,15.39-9.58,23.51
			c-2.64,8.63-5.27,17.27-7.66,25.97c-1.52,5.54-2.66,11.19-3.85,16.81c-0.46,2.15-0.58,4.38-0.94,7.18
			c1.26-0.72,2.03-1.07,2.7-1.56c5.74-4.14,12.14-6.67,19.02-8.19c4.74-1.05,9.24-0.58,13.51,1.64c2.9,1.51,5.69,3.24,8.51,4.91
			c0.46,0.27,0.93,0.69,1.15,1.15c0.78,1.71,2.2,2.68,3.71,3.62c3.73,2.32,7.47,4.64,11.14,7.06c1.32,0.87,2.58,1.91,3.65,3.08
			c1.55,1.69,1.39,2.88-0.38,4.83c-0.65-0.38-1.34-0.76-2-1.18c-5.07-3.21-10.09-6.48-15.22-9.6c-1.39-0.85-3.05-1.64-4.62-1.73
			c-7.83-0.43-15.66-0.08-23.47,0.75c-1.65,0.18-3.39,0.28-5.01-0.01c-4.83-0.86-9.35-0.11-13.74,2.03
			c-0.08,0.34-0.2,0.64-0.23,0.95c-0.38,3.97-0.81,7.95-1.12,11.93c-0.53,6.8-0.44,13.6,0.9,20.3c1.79,8.93,1.77,17.75-0.5,26.6
			c-0.95,3.7-1.45,7.53-2.06,11.31c-0.22,1.39-0.55,2.93,0.68,4.08c1.96,1.84,2.17,4.07,1.93,6.59c-0.36,3.73-0.89,7.53-0.54,11.22
			c0.68,7.31,1.81,14.59,2.93,21.85c2.16,13.9,5.41,27.59,8.5,41.3C76.94,334.37,77.23,335.15,77.47,335.94z M218.01,360.95
			c1.11-3.88,2.3-7.52,3.17-11.23c1.17-5.03,0.1-10.01-0.87-14.95c-0.19-0.96-0.87-1.88-1.48-2.69c-0.76-1.02-1.75-1.87-2.53-2.88
			c-0.81-1.06-1.74-1.31-2.93-0.83c-1.45,0.59-2.77,0.23-4.17-0.32c-1.54-0.61-3.17-1-4.76-1.49c-0.37-0.11-0.81-0.14-1.12-0.35
			c-3.46-2.4-7.23-2.12-11.08-1.43c-0.96,0.17-1.56,0.52-2,1.42c-1.17,2.38-3.1,4.04-5.42,5.24c-4.12,2.14-8.36,3.99-12.95,4.92
			c-3.52,0.72-7.01,1.6-10.54,2.25c-5.84,1.08-11.74,1.62-17.65,0.74c-4.73-0.7-9.45-1.59-14.14-2.52
			c-6.27-1.24-12.55-2.44-18.55-4.74c-2.33-0.9-4.59-1.91-6.29-3.82c-0.68-0.76-1.26-1.61-1.84-2.36c-2.43,0.76-3.91,2.2-4.74,4.52
			c-0.75,2.09-1.53,2.32-3.75,1.85c-0.61-0.13-1.22-0.22-1.59-0.29c-1.17,2.47-2.26,4.77-3.34,7.06c-0.1,0.22-0.23,0.42-0.31,0.65
			c-1.4,3.78-1.8,7.36,1.15,10.78c1.22,1.41,2,3.27,2.68,5.04c0.8,2.08,1.33,4.27,1.9,6.43c3.15,12.06,6.52,24.06,11.06,35.69
			c0.46,1.17,1,2.29,1.51,3.44c0.16-0.02,0.32-0.04,0.49-0.06c0.11-0.74,0.21-1.47,0.34-2.21c0.18-1.02,0.22-2.09,0.61-3.03
			c1.21-2.97,4.09-3.56,6.3-1.22c0.96,1.02,1.64,2.35,2.28,3.62c0.78,1.56,1.37,3.22,2.16,5.1c1.84-1.9,4.14-3.17,4.71-5.78
			c0.73-3.35,1.35-6.74,1.8-10.13c0.14-1.1-0.3-2.32-0.66-3.44c-0.85-2.65-1.99-5.23-2.66-7.92c-0.87-3.48-1.38-7.05-2.09-10.57
			c-0.9-4.46-0.37-8.59,2.71-12.16c0.08-0.09,0.04-0.28,0.06-0.5c-1.61-0.64-3.25-1.26-4.86-1.95c-0.73-0.31-1.45-0.68-2.1-1.14
			c-0.88-0.61-1.15-1.51-0.83-2.54c0.32-1.03,1.02-1.62,2.12-1.62c0.96,0,1.92,0.05,2.87,0.13c3.03,0.24,6.05,0.61,9.08,0.72
			c6.31,0.23,12.64,0.2,18.94,0.53c4.13,0.22,8.26,0.76,12.36,1.4c2.23,0.35,2.81,1.34,2.22,3.38c-0.85,2.89,0.58,5.03,1.78,7.37
			c0.84-0.4,1.47-0.75,2.13-1.01c3.17-1.21,5.55,0.28,5.53,3.65c-0.01,1.64-0.36,3.34-0.86,4.91c-2.12,6.62-4.35,13.2-6.55,19.8
			c-0.65,1.96-1.05,3.93-0.76,5.88c1.67-0.37,3.28-1.17,4.71-0.93c1.49,0.25,2.81,1.5,4.22,2.32c0.84-2.45,1.66-4.95,2.56-7.43
			c0.57-1.58,1.76-2.43,3.46-2.51c1.79-0.08,3.09,0.65,3.86,2.28c0.34,0.71,0.66,1.42,1.04,2.23c1.1-0.31,2.07-0.69,3.08-0.85
			c1.36-0.21,1.82-0.98,1.98-2.26c0.25-1.98,0.59-3.95,1.02-5.9c0.49-2.17,1.61-3.07,3.63-3.14c2.2-0.08,3.43,0.77,4.1,2.9
			c0.31,0.97,0.52,1.97,0.76,2.91c2.6,0,5.04,0,7.56,0c0.74-3.75,1.41-7.36,2.17-10.94c0.54-2.58,1.07-5.17,1.83-7.68
			c0.77-2.56,1.92-3.2,4.48-2.88C215.82,360.5,216.66,360.7,218.01,360.95z M63.65,332.23c0-0.98,0.05-1.43-0.01-1.87
			c-0.52-4.04-0.79-8.13-1.63-12.1c-2.96-14.05-4.07-28.29-4.73-42.58c-0.17-3.61,0.33-7.14,1.29-10.66
			c0.69-2.5,1.16-5.23,0.94-7.78c-0.65-7.43-0.01-14.69,2.01-21.84c2-7.06,2.27-14.18,0.83-21.35c-1.49-7.41-2.14-14.9-1.47-22.42
			c0.61-6.84,1.59-13.64,2.56-20.44c0.99-6.96,2.16-13.89,3.22-20.84c0.09-0.59,0.14-1.34-0.13-1.82c-1.11-1.91-2.36-3.75-3.68-5.8
			c-0.58,0.66-1.02,1.1-1.38,1.59c-1.51,2.06-3.05,4.11-4.5,6.22c-12.32,17.88-20.75,37.38-24.66,58.8
			c-1.32,7.25-2.08,14.54-2.44,21.9c-0.42,8.49-0.14,16.95,0.94,25.37c1.26,9.86,3.83,19.43,7,28.83
			c4.17,12.38,9.12,24.42,16.2,35.45c1.93,3.01,4.28,5.77,6.53,8.57C61.3,330.39,62.37,331.1,63.65,332.23z M311.15,215.83
			c1.33-0.32,2.38-0.66,3.45-0.82c1.89-0.27,3.79-0.6,5.69-0.58c2.08,0.02,3.18,1.07,3.71,3.1c0.18,0.69,0.25,1.42,0.26,2.13
			c0.01,4.85-1.39,9.28-3.94,13.38c-3.3,5.29-6.58,10.59-9.86,15.9c-0.36,0.59-0.66,1.21-1.02,1.87c0.38,0.25,0.63,0.45,0.9,0.6
			c1.19,0.65,2.44,1.21,3.58,1.93c1.1,0.7,1.5,1.94,1.03,2.89c-0.55,1.1-1.44,1.18-2.62,1.02c-1.39-0.18-2.84,0-4.26,0.14
			c-0.7,0.07-1.38,0.39-2.07,0.59c-1.47,0.42-2.71-0.09-3.72-1.09c-1.02-1.01-0.65-2.26-0.15-3.35c0.52-1.16,1.21-2.25,1.89-3.33
			c3.62-5.75,7.27-11.48,10.88-17.24c0.32-0.52,0.79-1.24,0.65-1.7c-0.44-1.46-0.8-3.01-1.86-4.27c-3.27,4.06-6.76,11.12-8.56,17.48
			c-0.79,2.8-1.43,5.65-4.47,6.62c0,10.18,0,20.06,0,30.2c5.27-1.26,9.88-3.1,13.22-7.4c2.95-3.78,5.92-7.56,9.16-11.1
			c3.23-3.53,5.8-7.42,7.71-11.77c0.93-2.12,1.93-4.22,2.75-6.38c0.44-1.17,0.82-2.46,0.81-3.69c-0.08-5.59-0.14-11.2-0.54-16.77
			c-0.32-4.37-1.14-8.71-1.73-13.06c-0.17-1.22-0.51-2.41-1.65-3.05c-3.35-1.9-6.9-2.66-10.56-1.03c-3.52,1.57-6.28,4.08-8.2,7.46
			C311.43,214.82,311.37,215.2,311.15,215.83z M294.09,340.06c3.4-3.05,6.01-6.06,8.42-9.25c8.57-11.36,15.31-23.78,20.91-36.83
			c3.44-8.02,6.43-16.19,7.85-24.85c0.39-2.35,0.39-4.69,0.2-7.53c-0.81,0.87-1.3,1.34-1.74,1.87c-3.94,4.83-7.91,9.65-11.8,14.52
			c-2.82,3.53-6.22,6.17-10.56,7.57c-2.28,0.74-4.53,1.57-6.78,2.39c-0.56,0.21-1.09,0.52-1.65,0.8c0.57,2.01,1.19,3.83,1.58,5.7
			c0.66,3.12,1.34,6.25,1.71,9.41c0.28,2.4-0.67,3.49-2.99,4.25c-0.9,0.29-1.82,0.51-2.92,0.81c0.19,0.86,0.37,1.63,0.51,2.39
			c0.37,1.96,0.9,3.91,1.03,5.89c0.18,2.81-1.37,4.32-4.19,4.37c-1.09,0.02-2.18-0.11-3.47-0.18
			C291.51,327.61,292.75,333.61,294.09,340.06z M116.5,326.39c0.95,1.58,2.44,1.49,3.7,1.74c3.52,0.68,7.09,1.15,10.6,1.89
			c7.99,1.69,16,2.97,24.22,2.15c7.1-0.71,14.09-1.91,20.77-4.43c2.37-0.89,4.56-2.26,6.79-3.5c0.63-0.35,1.52-0.72,1.12-2.02
			c-3.51-0.56-7.11-1.31-10.75-0.87c-6.33,0.77-12.64,1.78-18.94,2.77c-1.42,0.22-2.66,0.13-3.88-0.67
			c-2.32-1.53-4.74-1.68-7.29-0.54c-0.64,0.28-1.39,0.49-2.07,0.45c-5.16-0.33-10.18,0.65-15.2,1.57
			C122.61,325.47,119.63,325.89,116.5,326.39z M289,344.85c-2.27-1.26-3.21-3.26-4-5.39c-0.64-1.73-1.37-3.44-2.06-5.15
			c-0.21,0.07-0.43,0.13-0.64,0.2c0.84,5.02,1.69,10.03,2.63,15.62C286.53,348.07,287.72,346.51,289,344.85z M277.15,356.58
			c-0.88-0.95-1.45-1.72-2.17-2.3c-0.85-0.69-1.86-0.41-2.02,0.58c-0.23,1.43-0.23,2.9-0.37,4.95
			C274.37,358.54,275.62,357.66,277.15,356.58z"/>
		<path d="M202.66,480.66c-0.27,5.36-0.54,10.46-0.8,15.55c-0.05,1.04-0.01,2.09-0.17,3.11c-0.36,2.23-1.35,3.27-3.59,3.54
			c-1.74,0.21-3.52,0.3-5.27,0.22c-8.71-0.4-17.41-0.85-26.12-1.33c-3.35-0.18-6.7-0.51-10.05-0.72c-4.03-0.25-5.67-1.62-6.22-5.55
			c-0.73-5.25-0.6-10.53-0.17-15.8c0.06-0.79,0.14-1.57,0.24-2.75c-1.36,0.49-2.43,0.93-3.54,1.25c-2.37,0.68-4.74,1.41-7.16,1.89
			c-1.13,0.22-2.4,0.03-3.56-0.2c-1.55-0.31-2.5-1.38-2.83-2.92c-0.34-1.56,0.21-2.83,1.48-3.79c0.38-0.29,0.8-0.53,1.22-0.76
			c6.67-3.63,13.3-7.32,20.03-10.85c4.31-2.26,8.74-4.31,13.15-6.38c1.15-0.54,2.4-0.88,3.63-1.21c1.91-0.52,3.64-0.04,5.16,1.21
			c0.61,0.51,1.21,1.05,1.78,1.61c4.36,4.27,9.42,7.43,15.25,9.24c7.02,2.17,14.1,4.16,21.15,6.23c1.15,0.34,2.32,0.64,3.42,1.1
			c1.96,0.83,2.8,2.25,2.59,4.13c-0.21,1.91-1.29,3.03-3.44,3.4c-4.51,0.77-9.03,1.26-13.57,0.11
			C204.58,480.82,203.85,480.81,202.66,480.66z M159.81,490.06c10.99,0.87,21.83,1.66,32.8,2.36c0-5.13,0-9.91,0-14.79
			c-1.3-0.7-2.66-1.36-3.96-2.13c-4.46-2.64-8.95-5.26-13.34-8.02c-2.17-1.36-4.22-1.62-6.52-0.42c-1.91,1-3.89,1.85-5.87,2.71
			c-1.88,0.83-2.79,2.19-2.82,4.29c-0.07,4.47-0.28,8.94-0.4,13.41C159.68,488.26,159.77,489.05,159.81,490.06z"/>
		<path class="st0" d="M77.47,335.94c-0.24-0.79-0.53-1.57-0.71-2.38c-3.09-13.72-6.34-27.4-8.5-41.3
			c-1.13-7.26-2.25-14.54-2.93-21.85c-0.34-3.7,0.19-7.49,0.54-11.22c0.24-2.53,0.03-4.75-1.93-6.59c-1.22-1.15-0.9-2.69-0.68-4.08
			c0.61-3.78,1.11-7.61,2.06-11.31c2.27-8.85,2.29-17.68,0.5-26.6c-1.35-6.7-1.43-13.5-0.9-20.3c0.31-3.98,0.73-7.95,1.12-11.93
			c0.03-0.31,0.15-0.61,0.23-0.95c4.39-2.14,8.91-2.89,13.74-2.03c1.62,0.29,3.35,0.18,5.01,0.01c7.81-0.83,15.63-1.18,23.47-0.75
			c1.58,0.09,3.23,0.88,4.62,1.73c5.12,3.11,10.15,6.39,15.22,9.6c0.66,0.42,1.35,0.8,2,1.18c1.77-1.96,1.93-3.14,0.38-4.83
			c-1.07-1.17-2.33-2.2-3.65-3.08c-3.67-2.42-7.41-4.74-11.14-7.06c-1.51-0.94-2.94-1.91-3.71-3.62c-0.21-0.47-0.69-0.88-1.15-1.15
			c-2.82-1.67-5.61-3.4-8.51-4.91c-4.27-2.22-8.76-2.69-13.51-1.64c-6.88,1.53-13.28,4.05-19.02,8.19c-0.67,0.49-1.44,0.84-2.7,1.56
			c0.36-2.81,0.48-5.03,0.94-7.18c1.19-5.62,2.33-11.27,3.85-16.81c2.39-8.7,5.02-17.34,7.66-25.97c2.48-8.12,5.83-15.89,9.58-23.51
			c2.93-5.95,5.75-11.96,8.55-17.97c0.9-1.94,1.59-3.98,2.44-6.13c0.79,0.41,1.51,0.73,2.18,1.13c2.12,1.28,4.32,1.45,6.69,0.81
			c14.73-3.99,29.46-7.97,44.2-11.9c7.95-2.12,15.89-4.27,23.88-6.18c4.44-1.06,9.01-1.13,13.59-0.97
			c6.15,0.21,12.32,0.25,18.47,0.15c4.06-0.07,7.96,0.34,11.67,2.1c2.09,0.99,4.3,1.73,6.4,2.71c4.57,2.13,8.61,5.03,11.53,9.15
			c6.34,8.94,14.04,16.59,22.23,23.79c4.07,3.58,7.45,7.65,9.97,12.47c1.74,3.33,3.6,6.6,5.48,9.85c4.05,7.02,6.13,14.71,7.78,22.56
			c2,9.47,3.8,18.97,4.7,28.61c1.01,10.84,1.28,21.7,0.86,32.59c-0.29,7.44-0.94,14.83-1.98,22.2c-0.44,3.16-0.44,6.38-0.55,9.57
			c-0.07,1.87-0.46,3.41-2.35,4.33c-1.5,0.73-2.01,2.22-2.05,3.82c-0.05,1.68,0.05,3.36-0.06,5.04c-0.06,0.83-0.23,1.82-0.73,2.44
			c-2.42,3.05-3.48,6.43-2.96,10.29c0.03,0.22-0.1,0.45-0.2,0.89c-0.66,0.03-1.35,0.08-2.04,0.1c-3.62,0.11-5.08,1.54-4.99,5.22
			c0.07,2.79,0.41,5.58,0.63,8.36c0.06,0.79,0.15,1.57,0.25,2.53c-0.96,0.34-1.84,0.66-2.73,0.95c-2.23,0.71-3.47,2.21-3.56,4.57
			c-0.13,3.03-0.3,6.07-0.31,9.1c-0.01,1.92-0.6,3.27-2.86,3.82c-0.34-0.6-0.64-1.31-1.09-1.91c-1.06-1.38-2.06-2.85-3.34-4.01
			c-1.22-1.11-2.82-1.52-4.47-0.72c-1.62,0.78-2.29,2.17-2.32,3.89c-0.05,2.32-0.05,4.64-0.06,6.96c-0.01,0.87,0,1.74,0,2.92
			c-1.12-0.32-2-0.57-2.89-0.83c-0.23-0.07-0.45-0.16-0.68-0.23c-5.11-1.74-6.47,0.26-6.95,4.2c-0.03,0.23-0.14,0.45-0.22,0.72
			c-0.34,0.17-0.69,0.39-1.06,0.52c-2.7,0.97-3.82,3-3.86,5.74c-0.02,1.44,0.03,2.88-0.01,4.32c-0.02,0.86-0.15,1.72-0.23,2.67
			c-1.82,0.34-3.78,0.16-4.94,1.7c-0.99,1.32-1.71,2.84-2.64,4.44c-1.08-0.05-1.35-1.12-1.68-2.06c-1.99-5.65-3.96-11.31-5.93-16.97
			c-0.75-2.16-1.71-4.1-3.94-5.19c-0.66-0.32-1.12-1.11-1.6-1.73c-0.49-0.63-0.85-1.36-1.35-1.98c-1.57-1.94-2.78-2.19-5-1
			c-0.91,0.49-1.77,1.07-2.84,1.72c-0.35-0.57-0.69-1.07-0.97-1.6c-0.69-1.35-1.25-2.78-2.05-4.06c-1.61-2.57-3.47-2.99-6.11-1.53
			c-0.7,0.39-1.36,0.87-2.1,1.13c-2.05,0.72-4.13,0.69-6.05-0.35c-1.5-0.81-2.82-1.2-4.46-0.26c-0.85,0.49-2.01,0.45-3.03,0.6
			c-1.1,0.17-2.24,0.18-3.31,0.46c-0.98,0.25-1.9,0.76-2.85,1.15c-4.63-4.69-4.63-4.69-8.9-2.79c-0.15-0.03-0.34-0.01-0.46-0.09
			c-3.11-2.15-4.02-2.19-7.09-0.03c-1.97,1.38-3.88,2.03-6.24,0.76c-0.79-0.43-2.06-0.36-2.98-0.08c-2.34,0.71-4.56,1.38-6.91-0.1
			c-0.95-0.6-2.02-0.05-2.88,0.62c-0.93,0.73-1.85,1.48-3.01,2.41c-0.67-1.22-1.21-2.25-1.81-3.25c-1.3-2.19-2.42-2.58-4.5-1.26
			c-3.92,2.5-8.34,2.92-12.78,3.29c-0.54,0.05-1.13,0.04-1.6,0.27c-2.08,1.01-4.13,2.09-6.18,3.15c-1.67,0.86-3.08,2-3.91,3.74
			c-0.65,1.37-1.75,2.22-3.11,2.85c-2.17,1.02-4.32,2.07-6.42,3.21c-1.03,0.56-1.99,0.84-3.18,0.57c-2.22-0.52-3.96,0.35-5.02,2.31
			c-0.69,1.27-1.4,2.17-3,2.35c-1.39,0.15-2.17,1.28-2.53,2.6c-0.23,0.85-0.24,1.76-0.56,2.57c-0.37,0.94-0.76,2.02-1.49,2.63
			c-1.49,1.25-2.06,2.81-2.17,4.62c-0.23,3.83-0.42,7.66-0.64,11.49c-0.04,0.75-0.13,1.49-0.19,2.23
			C77.75,335.91,77.61,335.92,77.47,335.94z M170.23,122.2c2.62-1.86,3.36-3.68,2.19-6.47c-0.92-2.18-2.08-4.36-3.57-6.2
			c-6.11-7.56-11.23-15.74-16.03-24.16c-1.74-3.05-3.66-6.02-5.74-8.85c-0.95-1.29-2.39-2.35-3.8-3.16
			c-1.37-0.78-2.46-0.11-2.91,1.42c-0.16,0.53-0.12,1.11-0.25,1.65c-0.32,1.3-0.49,2.68-1.07,3.86c-2.61,5.31-5.32,10.57-8.04,15.82
			c-3.82,7.37-8.55,14.06-14.59,19.81c-0.63,0.6-1.2,1.29-1.66,2.03c-0.76,1.21-1.1,2.51-0.12,3.8c0.86,1.13,1.77,1.2,3.68,0.66
			c1.68-0.47,3.4-0.99,5.12-1.06c13.99-0.55,27.96-1.23,41.88-2.72c1.09-0.12,1.83,0.19,2.51,0.98
			C168.59,120.52,169.44,121.36,170.23,122.2z M221.45,171.05c0.01,0.12,0.01,0.24,0.02,0.36c2.56,0,5.12,0.01,7.67,0
			c2.4-0.01,4.8,0.03,7.19-0.1c2.12-0.12,3.45-1.59,3.45-3.56c0-1.4-0.75-2.4-1.8-3.22c-1.45-1.14-2.99-2.17-4.31-3.43
			c-4.07-3.87-8.86-5.47-14.43-5.23c-6.71,0.29-13.42,0.38-20.14,0.58c-0.88,0.03-1.75,0.13-2.62,0.23
			c-7.16,0.84-13.71,3.63-20.28,6.36c-0.44,0.18-0.86,0.44-1.23,0.73c-0.89,0.72-1.65,1.55-1.48,2.83c0.18,1.36,1.28,1.74,2.37,2.06
			c0.53,0.16,1.14,0.35,1.64,0.22c1.27-0.32,2.11,0.36,3.07,0.95c1.14,0.7,2.34,1.7,3.57,1.79c5.57,0.41,11.17,0.83,16.75,0.71
			C207.75,172.17,214.6,171.49,221.45,171.05z M200.56,194c0.33,1,0.56,1.74,0.81,2.48c1.55,4.6,4.9,6.36,9.56,5.1
			c1.83-0.5,2.91-1.61,3.19-3.46c0.17-1.09,0.23-2.19,0.36-3.44c3.32,0.54,6.52,1.43,9.73,1.49c3.2,0.06,6.27,1.86,9.79,0.77
			c-0.7-1.02-1.32-1.84-1.84-2.72c-1.41-2.34-3.35-4.02-5.88-5.07c-1.84-0.77-3.68-1.58-5.42-2.55c-2.77-1.55-5.67-2.27-8.85-2.6
			c-12.95-1.33-23.66,3.21-32.86,12c-0.3,0.29-0.43,0.76-0.71,1.29c0.98,0.37,1.9,0.49,2.53,0.99c2.16,1.72,4.43,1.58,6.79,0.64
			c2.75-1.09,5.47-2.23,8.23-3.31C197.46,195.05,198.96,194.57,200.56,194z M92.03,197.17c0,1.45-0.02,2.33,0,3.2
			c0.09,4.16,0.97,5.15,5.11,5.72c0.08,0.01,0.16,0.03,0.24,0.04c3.68,0.46,5.14-0.47,6.13-4.05c0.42-1.52,0.7-3.08,1.1-4.9
			c1.98,0.56,3.82,0.99,5.6,1.6c2.03,0.71,4.01,1.56,6,2.39c1.04,0.43,2,0.47,2.87-0.33c-0.21-2.26-0.22-2.25-1.7-3.42
			c-0.75-0.59-1.51-1.19-2.16-1.88c-1.97-2.08-4.3-3.68-7.04-4.36c-3.7-0.92-7.49-1.53-11.25-2.17c-0.74-0.13-1.61,0.05-2.33,0.33
			c-5.72,2.25-11.41,4.55-17.11,6.84c-1.05,0.42-1.96,0.99-2.25,1.98c1.61,1.15,3.14,2.15,4.56,3.28c1.36,1.09,2.7,1.26,4.19,0.37
			c0.68-0.41,1.36-0.84,2.05-1.23C87.9,199.51,89.76,198.46,92.03,197.17z M179.41,275.21c3.15-0.08,4.97-1.66,6.11-4.19
			c0.57-1.25,1.11-2.52,1.73-3.92c0.8,0.68,1.3,1.21,1.89,1.59c1.66,1.09,3.31,2.21,5.06,3.14c1.21,0.64,2.69,0.27,3.27-0.6
			c0.68-1.01,0.28-2.03-0.24-2.93c-0.34-0.6-0.89-1.12-1.42-1.59c-2.21-1.95-4.55-3.77-6.65-5.83c-1.92-1.89-3.57-4.05-5.37-6.06
			c-0.68-0.76-1.35-1.59-2.19-2.15c-1.47-0.99-2.85-0.77-3.87,0.37c-0.92,1.03-0.95,1.86,0.32,3.4c3.37,4.1,3.88,8.57,2.05,13.45
			C179.49,271.55,179.16,273.26,179.41,275.21z M126.8,187.93c-0.09,1.21-0.23,2.07-0.2,2.92c0.15,4.15,0.13,8.32,0.58,12.43
			c0.96,8.75,0.06,17.19-3.37,25.34c-0.84,2-1.16,4.11-0.98,6.53c0.63-0.09,1.28,0.02,1.59-0.26c0.75-0.68,1.51-1.45,1.97-2.33
			c0.95-1.84,1.72-3.78,2.52-5.69c1.97-4.69,3-9.55,2.87-14.69c-0.14-5.11-0.03-10.22-0.08-15.33c-0.01-1.19-0.13-2.4-0.36-3.57
			C130.85,190.88,129.49,189.12,126.8,187.93z M136.12,274.09c1.44,1.95,3.15,1.75,4.88,1.09c5.15-1.96,10.29-3.94,15.42-5.96
			c2.02-0.8,3.58-2.22,5.26-4.07c-4.44-0.51-7.9,1.48-11.53,2.71c-3.68,1.25-7.33,2.61-10.5,3.75c-1.1-0.9-1.7-1.76-2.48-1.97
			c-5.47-1.5-10.97-2.89-16.47-4.24c-1.12-0.28-2.35-0.35-3.38,0.77c0.94,2.08,3.04,1.97,4.64,2.62c1.7,0.69,3.45,1.28,5.22,1.78
			c1.76,0.5,3.56,0.92,5.37,1.2c1.74,0.27,3.51,0.33,5.54,0.5C137.29,273,136.77,273.48,136.12,274.09z M171.17,219.38
			c-1.06-2-1.92-3.97-3.09-5.75c-1.07-1.63-1.11-3.13-0.6-4.94c1.82-6.45,3.51-12.94,5.23-19.42c0.2-0.76,0.38-1.56,0.37-2.35
			c-0.01-1.17-0.73-1.92-1.84-2.22c-1.14-0.3-2.08,0.07-2.63,1.13c-0.36,0.7-0.63,1.47-0.83,2.23c-1.54,6.11-3.07,12.23-4.56,18.35
			c-0.21,0.84-0.22,1.74-0.26,2.61c-0.05,1.12,0.36,2.15,1.36,2.62c1.4,0.67,1.87,1.85,2.29,3.16c0.29,0.91,0.75,1.76,1.07,2.67
			C168.22,219.09,169.3,219.7,171.17,219.38z M102.86,271.83c0.96,1.14,1.64,2.02,2.4,2.82c0.87,0.9,1.71,0.77,1.92-0.36
			c0.69-3.76,1.31-7.54,1.83-11.33c0.08-0.56-0.4-1.55-0.86-1.73c-0.61-0.24-1.68-0.13-2.16,0.29c-0.82,0.71-1.29,1.79-1.98,2.67
			c-0.47,0.6-0.95,1.34-1.6,1.61c-1.24,0.52-1.83,1.45-2.31,2.58c-1.6,3.82-3.21,7.64-4.83,11.46c-0.4,0.95-0.87,1.89-1.22,2.86
			c-0.28,0.76-0.01,1.41,0.71,1.83c0.79,0.46,1.57,0.44,2.14-0.29c0.44-0.55,0.77-1.21,1.07-1.85
			C99.57,278.99,101.13,275.59,102.86,271.83z M92.65,219.87c1.42,1.66,2.81,2.05,4.66,1.46c3.42-1.08,6.89-1.99,10.35-2.94
			c5.61-1.55,9.99-4.85,13.51-9.39c0.7-0.9,1.15-1.85,0.94-3.03c-1.96-0.65-3.14,0.36-4.25,1.59c-4.02,4.49-8.99,7.29-14.92,8.45
			c-2.18,0.43-4.33,1.12-6.43,1.87C95.2,218.35,94.01,219.16,92.65,219.87z M148.03,281.36c4.05-1.42,8.2-2.59,11.84-4.99
			c0.06-0.04,0.11-0.12,0.16-0.17c1.37-1.48,1-4-0.85-4.78c-0.81-0.34-1.99-0.45-2.76-0.11c-3.3,1.41-6.51,3.02-9.75,4.58
			c-0.34,0.17-0.64,0.48-0.89,0.78c-0.83,0.96-0.84,2.05-0.3,3.13C145.98,280.81,146.81,281.36,148.03,281.36z M120.89,278.77
			c0,0.06,0,0.11,0,0.17c1.43,0.08,2.86,0.27,4.29,0.22c1.74-0.06,2.9-1.17,3.13-2.75c0.21-1.44-0.77-2.91-2.47-3.33
			c-3.46-0.86-6.97-0.66-10.41,0.06c-1.8,0.37-2.48,2.06-1.86,3.75c0.47,1.31,1.54,1.8,2.79,1.87
			C117.86,278.83,119.38,278.77,120.89,278.77z M177.71,199.63c-0.17,0.17-0.33,0.34-0.5,0.5c0.3,0.71,0.54,1.45,0.91,2.12
			c3.49,6.34,8.65,10.81,15.45,13.24c1.76,0.63,3.73,0.68,5.62,0.92c0.47,0.06,0.97-0.21,2.01-0.46c-1.15-0.87-1.83-1.49-2.62-1.95
			c-0.54-0.31-1.2-0.41-1.82-0.57c-5.49-1.47-10.15-4.14-13.42-8.97c-0.93-1.37-2.21-2.52-3.45-3.64
			C179.31,200.27,178.45,200.01,177.71,199.63z M162.65,139.42c-0.07-0.22-0.2-0.94-0.52-1.56c-0.94-1.76-1.93-3.49-2.97-5.19
			c-0.37-0.6-0.88-1.15-1.43-1.58c-0.77-0.61-1.75-1.09-2.65-0.45c-0.94,0.68-1.99,1.54-1.75,2.9c0.48,2.71,1.38,5.25,3.41,7.24
			c1.24,1.21,2.7,1.66,4.39,1.2C162.19,141.69,162.8,141.07,162.65,139.42z M138.23,137.95c0.03,0,0.05-0.01,0.08-0.01
			c-0.21-1.49-0.44-2.99-0.63-4.48c-0.14-1.1-0.84-1.86-1.82-1.91c-0.76-0.04-1.85,0.29-2.28,0.86c-1.19,1.52-1.87,3.42-1.59,5.33
			c0.2,1.35,0.9,2.69,1.65,3.87c0.54,0.84,1.57,1.46,2.69,1.03c1.12-0.42,1.79-1.31,1.88-2.54
			C138.28,139.38,138.23,138.66,138.23,137.95z M105.78,92.71c-0.05,0.6,0.4,1.37,1.37,1.83c2.22,1.06,4.42,2.14,6.66,3.15
			c0.81,0.36,1.73,0.55,2.43-0.22c0.8-0.88,0.8-1.96,0.17-2.87c-1.97-2.83-4.76-4.39-8.17-4.69
			C106.79,89.79,105.79,90.9,105.78,92.71z M118.9,133.78c-1.3-0.07-2.16,0.58-2.56,1.75c-0.39,1.13-0.53,2.34-0.93,3.46
			c-0.57,1.62-0.04,2.96,0.81,4.28c0.5,0.77,1.11,1.62,2.05,1.32c0.74-0.24,1.64-0.92,1.86-1.61c0.67-2.03,1.2-4.14,1.49-6.26
			C121.86,134.97,120.62,133.83,118.9,133.78z M172.82,138.56c-0.17-0.82-0.13-1.4-0.4-1.73c-1.48-1.77-2.97-3.54-4.61-5.16
			c-0.7-0.7-1.8-0.67-2.69-0.1c-0.91,0.59-1.14,1.54-0.93,2.54c0.52,2.44,1.81,4.42,3.88,5.83c1.09,0.74,2.32,0.74,3.41,0.1
			C172.09,139.7,172.47,138.98,172.82,138.56z M188.18,102.82c0.21-2.06-0.99-3.2-2.78-2.78c-2.14,0.5-4.22,1.34-6.26,2.18
			c-0.92,0.38-1.44,1.25-1.2,2.35c0.28,1.3,2.69,2.81,3.93,2.33c1.7-0.66,3.39-1.39,4.94-2.32
			C187.54,104.14,187.93,103.16,188.18,102.82z M174.82,82.88c-1.57-0.01-4.13,1.47-5.23,3.01c-0.87,1.23-0.94,2.46-0.19,3.56
			c0.72,1.05,2.02,1.58,3.39,1.14c2.16-0.7,3.72-2.19,4.54-4.28C178,84.56,176.69,82.89,174.82,82.88z M104.77,114.17
			c-1.1,0.32-2.86,0.77-4.57,1.37c-0.94,0.33-1.62,1.03-1.43,2.18c0.18,1.1,2.28,2.84,3.34,2.58c1.61-0.38,3.21-0.88,4.73-1.54
			c1.2-0.52,1.61-1.66,1.32-2.76C107.85,114.78,106.89,114.13,104.77,114.17z M183.19,121.03c0.91-0.06,1.31-0.06,1.7-0.11
			c1.51-0.22,2.51-1.05,2.74-2.26c0.26-1.37-0.35-2.63-1.94-3.13c-1.32-0.41-2.78-0.49-4.18-0.48c-1.21,0.01-2.05,0.77-2.31,2.03
			c-0.26,1.21,0.17,2.41,1.35,3.03C181.5,120.61,182.6,120.83,183.19,121.03z M168.48,74.42c-1.24-0.04-2.91,1.12-3.57,2.43
			c-0.53,1.05-0.43,2.01,0.38,2.84c0.79,0.8,1.75,1.04,2.83,0.55c1.22-0.55,2.03-1.51,2.49-2.74
			C171.21,75.85,170.24,74.47,168.48,74.42z M130.08,83.76c-0.67-2.48-1.97-4.28-4.14-5.39c-0.94-0.48-1.97-0.74-2.97-0.14
			c-0.79,0.48-1.14,1.22-0.45,1.99C124.48,82.39,126.71,84.07,130.08,83.76z"/>
		<path class="st0" d="M218.01,360.95c-1.35-0.25-2.2-0.45-3.05-0.56c-2.55-0.32-3.7,0.31-4.48,2.88c-0.76,2.52-1.28,5.11-1.83,7.68
			c-0.75,3.59-1.43,7.19-2.17,10.94c-2.51,0-4.95,0-7.56,0c-0.24-0.94-0.46-1.94-0.76-2.91c-0.67-2.12-1.9-2.97-4.1-2.9
			c-2.02,0.07-3.15,0.97-3.63,3.14c-0.43,1.95-0.77,3.92-1.02,5.9c-0.16,1.28-0.62,2.05-1.98,2.26c-1.01,0.16-1.98,0.54-3.08,0.85
			c-0.38-0.81-0.7-1.52-1.04-2.23c-0.77-1.63-2.07-2.36-3.86-2.28c-1.7,0.08-2.89,0.93-3.46,2.51c-0.9,2.47-1.72,4.98-2.56,7.43
			c-1.41-0.82-2.73-2.07-4.22-2.32c-1.43-0.24-3.04,0.56-4.71,0.93c-0.29-1.95,0.11-3.92,0.76-5.88c2.2-6.59,4.43-13.18,6.55-19.8
			c0.5-1.57,0.85-3.27,0.86-4.91c0.02-3.37-2.36-4.86-5.53-3.65c-0.67,0.25-1.29,0.61-2.13,1.01c-1.2-2.34-2.62-4.48-1.78-7.37
			c0.6-2.04,0.01-3.03-2.22-3.38c-4.09-0.64-8.22-1.18-12.36-1.4c-6.31-0.33-12.63-0.3-18.94-0.53c-3.03-0.11-6.05-0.49-9.08-0.72
			c-0.96-0.07-1.92-0.13-2.87-0.13c-1.09,0-1.8,0.59-2.12,1.62c-0.32,1.03-0.04,1.93,0.83,2.54c0.65,0.45,1.37,0.83,2.1,1.14
			c1.61,0.69,3.25,1.31,4.86,1.95c-0.02,0.22,0.02,0.41-0.06,0.5c-3.08,3.57-3.6,7.7-2.71,12.16c0.71,3.52,1.22,7.09,2.09,10.57
			c0.68,2.69,1.81,5.27,2.66,7.92c0.35,1.11,0.8,2.34,0.66,3.44c-0.45,3.4-1.07,6.78-1.8,10.13c-0.57,2.61-2.88,3.87-4.71,5.78
			c-0.79-1.89-1.38-3.54-2.16-5.1c-0.63-1.27-1.31-2.6-2.28-3.62c-2.21-2.34-5.08-1.75-6.3,1.22c-0.38,0.94-0.43,2.01-0.61,3.03
			c-0.13,0.73-0.23,1.47-0.34,2.21c-0.16,0.02-0.32,0.04-0.49,0.06c-0.51-1.15-1.06-2.28-1.51-3.44
			c-4.54-11.63-7.91-23.62-11.06-35.69c-0.56-2.16-1.09-4.35-1.9-6.43c-0.68-1.77-1.47-3.63-2.68-5.04c-2.95-3.42-2.55-7-1.15-10.78
			c0.08-0.22,0.21-0.43,0.31-0.65c1.09-2.29,2.17-4.58,3.34-7.06c0.37,0.07,0.99,0.16,1.59,0.29c2.22,0.47,2.99,0.24,3.75-1.85
			c0.84-2.32,2.32-3.76,4.74-4.52c0.58,0.76,1.16,1.6,1.84,2.36c1.7,1.91,3.95,2.92,6.29,3.82c6,2.3,12.28,3.5,18.55,4.74
			c4.7,0.93,9.41,1.82,14.14,2.52c5.91,0.88,11.81,0.34,17.65-0.74c3.53-0.66,7.02-1.53,10.54-2.25c4.59-0.93,8.82-2.78,12.95-4.92
			c2.33-1.21,4.26-2.86,5.42-5.24c0.44-0.9,1.05-1.25,2-1.42c3.86-0.69,7.63-0.97,11.08,1.43c0.31,0.21,0.74,0.24,1.12,0.35
			c1.59,0.48,3.22,0.87,4.76,1.49c1.39,0.55,2.72,0.92,4.17,0.32c1.19-0.49,2.12-0.23,2.93,0.83c0.77,1.01,1.76,1.86,2.53,2.88
			c0.61,0.82,1.3,1.73,1.48,2.69c0.96,4.94,2.04,9.92,0.87,14.95C220.32,353.44,219.12,357.07,218.01,360.95z"/>
		<path class="st0" d="M63.65,332.23c-1.28-1.13-2.35-1.84-3.11-2.79c-2.25-2.8-4.6-5.55-6.53-8.57
			c-7.09-11.03-12.04-23.07-16.2-35.45c-3.17-9.4-5.74-18.97-7-28.83c-1.08-8.42-1.36-16.88-0.94-25.37
			c0.37-7.35,1.12-14.65,2.44-21.9c3.91-21.41,12.34-40.92,24.66-58.8c1.45-2.11,2.98-4.16,4.5-6.22c0.36-0.49,0.8-0.93,1.38-1.59
			c1.32,2.06,2.57,3.89,3.68,5.8c0.28,0.48,0.22,1.22,0.13,1.82c-1.06,6.95-2.23,13.88-3.22,20.84c-0.96,6.8-1.94,13.61-2.56,20.44
			c-0.67,7.52-0.02,15,1.47,22.42c1.44,7.17,1.17,14.29-0.83,21.35c-2.02,7.14-2.66,14.4-2.01,21.84c0.22,2.56-0.25,5.28-0.94,7.78
			c-0.96,3.52-1.46,7.04-1.29,10.66c0.66,14.3,1.77,28.54,4.73,42.58c0.84,3.97,1.11,8.06,1.63,12.1
			C63.7,330.8,63.65,331.25,63.65,332.23z"/>
		<path class="st0" d="M311.15,215.83c0.22-0.64,0.29-1.01,0.47-1.33c1.92-3.38,4.68-5.89,8.2-7.46c3.65-1.63,7.2-0.87,10.56,1.03
			c1.14,0.65,1.48,1.83,1.65,3.05c0.6,4.35,1.41,8.69,1.73,13.06c0.41,5.57,0.46,11.18,0.54,16.77c0.02,1.23-0.36,2.52-0.81,3.69
			c-0.82,2.16-1.82,4.26-2.75,6.38c-1.91,4.36-4.48,8.24-7.71,11.77c-3.23,3.54-6.21,7.31-9.16,11.1c-3.35,4.3-7.96,6.14-13.22,7.4
			c0-10.14,0-20.02,0-30.2c3.04-0.97,3.67-3.82,4.47-6.62c1.8-6.35,5.28-13.42,8.56-17.48c1.06,1.26,1.42,2.81,1.86,4.27
			c0.14,0.46-0.33,1.18-0.65,1.7c-3.61,5.75-7.26,11.49-10.88,17.24c-0.68,1.08-1.36,2.17-1.89,3.33c-0.5,1.1-0.87,2.34,0.15,3.35
			c1.01,1,2.26,1.51,3.72,1.09c0.69-0.2,1.37-0.52,2.07-0.59c1.41-0.14,2.87-0.32,4.26-0.14c1.18,0.15,2.07,0.08,2.62-1.02
			c0.48-0.95,0.08-2.19-1.03-2.89c-1.15-0.72-2.39-1.29-3.58-1.93c-0.27-0.15-0.52-0.34-0.9-0.6c0.36-0.66,0.66-1.29,1.02-1.87
			c3.28-5.3,6.56-10.61,9.86-15.9c2.56-4.1,3.95-8.54,3.94-13.38c0-0.71-0.08-1.44-0.26-2.13c-0.53-2.03-1.63-3.09-3.71-3.1
			c-1.9-0.01-3.8,0.31-5.69,0.58C313.53,215.17,312.48,215.51,311.15,215.83z"/>
		<path class="st0" d="M294.09,340.06c-1.34-6.46-2.59-12.46-3.88-18.65c1.29,0.07,2.38,0.2,3.47,0.18
			c2.82-0.05,4.37-1.56,4.19-4.37c-0.13-1.98-0.66-3.93-1.03-5.89c-0.14-0.77-0.33-1.53-0.51-2.39c1.1-0.3,2.02-0.52,2.92-0.81
			c2.32-0.76,3.27-1.85,2.99-4.25c-0.38-3.16-1.05-6.29-1.71-9.41c-0.4-1.87-1.02-3.69-1.58-5.7c0.56-0.28,1.09-0.6,1.65-0.8
			c2.25-0.82,4.5-1.65,6.78-2.39c4.34-1.4,7.74-4.05,10.56-7.57c3.9-4.87,7.86-9.69,11.8-14.52c0.43-0.53,0.93-1,1.74-1.87
			c0.19,2.83,0.19,5.18-0.2,7.53c-1.42,8.66-4.41,16.83-7.85,24.85c-5.6,13.05-12.34,25.47-20.91,36.83
			C300.11,334,297.5,337.01,294.09,340.06z"/>
		<path class="st0" d="M116.5,326.39c3.13-0.5,6.11-0.92,9.07-1.46c5.03-0.92,10.04-1.9,15.2-1.57c0.68,0.04,1.44-0.16,2.07-0.45
			c2.54-1.14,4.97-0.99,7.29,0.54c1.21,0.8,2.45,0.9,3.88,0.67c6.3-0.99,12.61-2,18.94-2.77c3.63-0.44,7.24,0.31,10.75,0.87
			c0.41,1.3-0.49,1.68-1.12,2.02c-2.23,1.23-4.42,2.6-6.79,3.5c-6.69,2.52-13.67,3.73-20.77,4.43c-8.23,0.82-16.23-0.47-24.22-2.15
			c-3.51-0.74-7.08-1.21-10.6-1.89C118.93,327.88,117.45,327.97,116.5,326.39z"/>
		<path class="st0" d="M289,344.85c-1.28,1.66-2.48,3.21-4.07,5.27c-0.94-5.58-1.79-10.6-2.63-15.62c0.21-0.07,0.43-0.13,0.64-0.2
			c0.69,1.72,1.42,3.42,2.06,5.15C285.8,341.59,286.73,343.6,289,344.85z"/>
		<path class="st0" d="M277.15,356.58c-1.53,1.08-2.78,1.97-4.56,3.23c0.14-2.05,0.15-3.52,0.37-4.95c0.16-0.99,1.16-1.27,2.02-0.58
			C275.7,354.86,276.27,355.63,277.15,356.58z"/>
		<path class="st0" d="M159.81,490.06c-0.05-1.02-0.14-1.8-0.11-2.58c0.13-4.47,0.33-8.94,0.4-13.41c0.03-2.1,0.94-3.46,2.82-4.29
			c1.97-0.87,3.96-1.72,5.87-2.71c2.3-1.2,4.35-0.94,6.52,0.42c4.39,2.76,8.88,5.37,13.34,8.02c1.3,0.77,2.66,1.43,3.96,2.13
			c0,4.88,0,9.66,0,14.79C181.64,491.72,170.8,490.93,159.81,490.06z"/>
		<path d="M170.23,122.2c-0.79-0.84-1.64-1.68-2.41-2.58c-0.68-0.8-1.42-1.1-2.51-0.98c-13.92,1.49-27.9,2.18-41.88,2.72
			c-1.72,0.07-3.44,0.59-5.12,1.06c-1.91,0.54-2.82,0.46-3.68-0.66c-0.98-1.29-0.64-2.59,0.12-3.8c0.46-0.74,1.03-1.43,1.66-2.03
			c6.04-5.74,10.77-12.44,14.59-19.81c2.72-5.25,5.43-10.51,8.04-15.82c0.58-1.18,0.75-2.56,1.07-3.86c0.13-0.54,0.1-1.12,0.25-1.65
			c0.45-1.53,1.54-2.2,2.91-1.42c1.42,0.81,2.85,1.86,3.8,3.16c2.08,2.83,4,5.79,5.74,8.85c4.8,8.42,9.92,16.6,16.03,24.16
			c1.48,1.83,2.65,4.01,3.57,6.2C173.59,118.52,172.85,120.35,170.23,122.2z M125.51,115.25c3.3-0.37,6.02-0.68,9.08-1.03
			c-1.23-2.25-2.29-4.19-3.6-6.6c-0.39,0.62-0.62,1.04-0.9,1.42C128.68,110.96,127.27,112.87,125.51,115.25z M145.74,108.7
			c3.51,0.43,6.68-1.65,7.61-4.72c0.61-2.02-0.32-4.2-2.41-5.38C151.47,103.06,148.87,105.95,145.74,108.7z M158.07,106.72
			c-1.72,1.92-3.27,3.64-4.82,5.37c0.09,0.13,0.17,0.25,0.26,0.38c2.64-0.27,5.28-0.53,8.39-0.84
			C160.49,109.83,159.35,108.37,158.07,106.72z M143.66,82.6c-1.06,2.45-1.91,4.39-2.84,6.55c2.27,0.23,4.23,0.43,6.68,0.68
			C146.17,87.32,145.06,85.24,143.66,82.6z M138.54,103.03c-2.07,1.57-2.25,2.23-1.31,4.14c1.15,2.35,1.7,2.66,3.95,2.04
			C139.1,107.69,138.67,105.54,138.54,103.03z"/>
		<path d="M221.45,171.05c-6.86,0.45-13.71,1.13-20.57,1.27c-5.58,0.12-11.18-0.3-16.75-0.71c-1.23-0.09-2.43-1.09-3.57-1.79
			c-0.96-0.59-1.81-1.27-3.07-0.95c-0.5,0.12-1.11-0.07-1.64-0.22c-1.09-0.32-2.18-0.7-2.37-2.06c-0.17-1.28,0.58-2.11,1.48-2.83
			c0.37-0.3,0.79-0.55,1.23-0.73c6.57-2.73,13.12-5.51,20.28-6.36c0.87-0.1,1.75-0.2,2.62-0.23c6.71-0.19,13.43-0.29,20.14-0.58
			c5.57-0.24,10.37,1.36,14.43,5.23c1.33,1.26,2.87,2.3,4.31,3.43c1.05,0.83,1.8,1.83,1.8,3.22c0,1.97-1.33,3.44-3.45,3.56
			c-2.39,0.14-4.79,0.09-7.19,0.1c-2.56,0.01-5.12,0-7.67,0C221.46,171.29,221.46,171.17,221.45,171.05z"/>
		<path d="M200.56,194c-1.6,0.56-3.1,1.04-4.57,1.62c-2.75,1.08-5.48,2.22-8.23,3.31c-2.36,0.93-4.63,1.08-6.79-0.64
			c-0.63-0.5-1.55-0.62-2.53-0.99c0.29-0.53,0.41-1,0.71-1.29c9.2-8.79,19.9-13.33,32.86-12c3.18,0.33,6.08,1.05,8.85,2.6
			c1.74,0.97,3.58,1.78,5.42,2.55c2.53,1.06,4.47,2.73,5.88,5.07c0.53,0.87,1.14,1.69,1.84,2.72c-3.52,1.09-6.59-0.71-9.79-0.77
			c-3.22-0.06-6.41-0.95-9.73-1.49c-0.13,1.25-0.19,2.35-0.36,3.44c-0.29,1.85-1.36,2.96-3.19,3.46c-4.66,1.26-8.01-0.5-9.56-5.1
			C201.12,195.75,200.88,195,200.56,194z"/>
		<path d="M92.03,197.17c-2.28,1.29-4.14,2.33-5.99,3.39c-0.69,0.4-1.37,0.82-2.05,1.23c-1.48,0.9-2.83,0.72-4.19-0.37
			c-1.42-1.13-2.94-2.13-4.56-3.28c0.29-0.98,1.2-1.56,2.25-1.98c5.7-2.29,11.39-4.59,17.11-6.84c0.72-0.28,1.59-0.46,2.33-0.33
			c3.77,0.64,7.55,1.25,11.25,2.17c2.74,0.68,5.07,2.27,7.04,4.36c0.65,0.69,1.41,1.29,2.16,1.88c1.48,1.18,1.49,1.16,1.7,3.42
			c-0.87,0.8-1.83,0.76-2.87,0.33c-1.99-0.82-3.97-1.68-6-2.39c-1.78-0.62-3.62-1.05-5.6-1.6c-0.4,1.82-0.68,3.38-1.1,4.9
			c-1,3.59-2.45,4.52-6.13,4.05c-0.08-0.01-0.16-0.03-0.24-0.04c-4.14-0.57-5.02-1.56-5.11-5.72
			C92.02,199.5,92.03,198.62,92.03,197.17z"/>
		<path d="M179.41,275.21c-0.25-1.95,0.08-3.67,0.69-5.3c1.83-4.88,1.32-9.35-2.05-13.45c-1.27-1.54-1.23-2.37-0.32-3.4
			c1.02-1.14,2.41-1.36,3.87-0.37c0.83,0.56,1.51,1.39,2.19,2.15c1.8,2.01,3.45,4.17,5.37,6.06c2.1,2.07,4.44,3.88,6.65,5.83
			c0.53,0.47,1.07,0.98,1.42,1.59c0.52,0.9,0.92,1.92,0.24,2.93c-0.58,0.87-2.06,1.24-3.27,0.6c-1.75-0.93-3.4-2.05-5.06-3.14
			c-0.59-0.39-1.09-0.91-1.89-1.59c-0.62,1.41-1.16,2.67-1.73,3.92C184.37,273.55,182.55,275.13,179.41,275.21z"/>
		<path d="M126.8,187.93c2.69,1.18,4.06,2.94,4.54,5.35c0.24,1.17,0.35,2.38,0.36,3.57c0.05,5.11-0.06,10.22,0.08,15.33
			c0.14,5.13-0.9,9.99-2.87,14.69c-0.8,1.91-1.57,3.85-2.52,5.69c-0.46,0.89-1.21,1.66-1.97,2.33c-0.31,0.28-0.97,0.17-1.59,0.26
			c-0.18-2.42,0.14-4.53,0.98-6.53c3.42-8.15,4.33-16.59,3.37-25.34c-0.45-4.12-0.43-8.29-0.58-12.43
			C126.57,190,126.71,189.14,126.8,187.93z"/>
		<path d="M136.12,274.09c0.65-0.61,1.17-1.09,1.96-1.83c-2.03-0.17-3.8-0.23-5.54-0.5c-1.81-0.28-3.61-0.71-5.37-1.2
			c-1.77-0.5-3.52-1.08-5.22-1.78c-1.6-0.66-3.7-0.54-4.64-2.62c1.03-1.12,2.26-1.04,3.38-0.77c5.51,1.35,11.01,2.75,16.47,4.24
			c0.78,0.21,1.38,1.07,2.48,1.97c3.17-1.14,6.82-2.5,10.5-3.75c3.63-1.23,7.1-3.22,11.53-2.71c-1.67,1.85-3.24,3.27-5.26,4.07
			c-5.13,2.02-10.27,4-15.42,5.96C139.27,275.84,137.56,276.04,136.12,274.09z"/>
		<path d="M171.17,219.38c-1.87,0.32-2.95-0.29-3.5-1.9c-0.31-0.9-0.78-1.76-1.07-2.67c-0.42-1.32-0.88-2.5-2.29-3.16
			c-1-0.47-1.41-1.5-1.36-2.62c0.04-0.87,0.06-1.77,0.26-2.61c1.49-6.12,3.02-12.24,4.56-18.35c0.19-0.77,0.46-1.53,0.83-2.23
			c0.54-1.05,1.49-1.43,2.63-1.13c1.12,0.29,1.83,1.04,1.84,2.22c0.01,0.78-0.17,1.58-0.37,2.35c-1.72,6.48-3.4,12.97-5.23,19.42
			c-0.51,1.82-0.47,3.32,0.6,4.94C169.25,215.4,170.12,217.38,171.17,219.38z"/>
		<path d="M102.86,271.83c-1.73,3.76-3.29,7.16-4.88,10.55c-0.3,0.65-0.63,1.3-1.07,1.85c-0.58,0.73-1.36,0.75-2.14,0.29
			c-0.71-0.42-0.99-1.07-0.71-1.83c0.36-0.97,0.82-1.9,1.22-2.86c1.61-3.82,3.23-7.64,4.83-11.46c0.47-1.13,1.07-2.06,2.31-2.58
			c0.65-0.28,1.13-1.01,1.6-1.61c0.68-0.87,1.16-1.96,1.98-2.67c0.48-0.41,1.54-0.53,2.16-0.29c0.46,0.18,0.94,1.17,0.86,1.73
			c-0.52,3.79-1.14,7.57-1.83,11.33c-0.21,1.14-1.05,1.27-1.92,0.36C104.5,273.86,103.83,272.97,102.86,271.83z"/>
		<path d="M92.65,219.87c1.36-0.71,2.55-1.52,3.86-1.99c2.1-0.75,4.24-1.44,6.43-1.87c5.94-1.16,10.9-3.96,14.92-8.45
			c1.11-1.24,2.29-2.24,4.25-1.59c0.21,1.18-0.24,2.14-0.94,3.03c-3.53,4.54-7.9,7.84-13.51,9.39c-3.46,0.95-6.93,1.86-10.35,2.94
			C95.46,221.92,94.07,221.54,92.65,219.87z"/>
		<path d="M148.03,281.36c-1.22-0.01-2.05-0.55-2.56-1.57c-0.54-1.09-0.53-2.17,0.3-3.13c0.26-0.3,0.55-0.62,0.89-0.78
			c3.23-1.56,6.45-3.17,9.75-4.58c0.78-0.33,1.95-0.22,2.76,0.11c1.86,0.77,2.23,3.29,0.85,4.78c-0.05,0.06-0.1,0.13-0.16,0.17
			C156.23,278.77,152.08,279.94,148.03,281.36z"/>
		<path d="M120.89,278.77c-1.51,0-3.03,0.06-4.53-0.02c-1.25-0.06-2.32-0.56-2.79-1.87c-0.61-1.69,0.07-3.38,1.86-3.75
			c3.44-0.72,6.95-0.91,10.41-0.06c1.7,0.42,2.68,1.89,2.47,3.33c-0.23,1.58-1.39,2.69-3.13,2.75c-1.43,0.05-2.86-0.14-4.29-0.22
			C120.89,278.88,120.89,278.83,120.89,278.77z"/>
		<path d="M177.71,199.63c0.74,0.39,1.6,0.65,2.19,1.19c1.23,1.13,2.52,2.27,3.45,3.64c3.27,4.84,7.93,7.51,13.42,8.97
			c0.62,0.16,1.28,0.26,1.82,0.57c0.78,0.46,1.47,1.08,2.62,1.95c-1.04,0.25-1.55,0.52-2.01,0.46c-1.89-0.24-3.86-0.29-5.62-0.92
			c-6.8-2.43-11.96-6.9-15.45-13.24c-0.37-0.67-0.61-1.41-0.91-2.12C177.38,199.96,177.55,199.79,177.71,199.63z"/>
		<path d="M162.65,139.42c0.15,1.65-0.47,2.28-1.52,2.56c-1.7,0.46-3.16,0.01-4.39-1.2c-2.03-1.99-2.94-4.53-3.41-7.24
			c-0.24-1.36,0.8-2.22,1.75-2.9c0.89-0.64,1.87-0.16,2.65,0.45c0.55,0.43,1.07,0.99,1.43,1.58c1.04,1.7,2.03,3.43,2.97,5.19
			C162.46,138.48,162.58,139.2,162.65,139.42z"/>
		<path d="M138.23,137.95c0,0.72,0.04,1.43-0.01,2.15c-0.09,1.22-0.76,2.12-1.88,2.54c-1.13,0.42-2.15-0.19-2.69-1.03
			c-0.75-1.17-1.45-2.52-1.65-3.87c-0.28-1.92,0.4-3.81,1.59-5.33c0.44-0.56,1.52-0.9,2.28-0.86c0.98,0.05,1.67,0.82,1.82,1.91
			c0.2,1.5,0.42,2.99,0.63,4.48C138.29,137.94,138.26,137.94,138.23,137.95z"/>
		<path d="M105.78,92.71c0.01-1.8,1.01-2.92,2.46-2.8c3.41,0.3,6.2,1.85,8.17,4.69c0.63,0.91,0.63,1.99-0.17,2.87
			c-0.7,0.78-1.63,0.59-2.43,0.22c-2.24-1.01-4.44-2.1-6.66-3.15C106.19,94.07,105.73,93.31,105.78,92.71z"/>
		<path d="M118.9,133.78c1.72,0.05,2.96,1.19,2.73,2.93c-0.29,2.12-0.82,4.23-1.49,6.26c-0.23,0.69-1.13,1.37-1.86,1.61
			c-0.94,0.3-1.55-0.55-2.05-1.32c-0.85-1.32-1.39-2.65-0.81-4.28c0.4-1.12,0.54-2.33,0.93-3.46
			C116.74,134.36,117.6,133.71,118.9,133.78z"/>
		<path d="M172.82,138.56c-0.36,0.42-0.73,1.14-1.33,1.49c-1.09,0.64-2.33,0.64-3.41-0.1c-2.08-1.41-3.36-3.39-3.88-5.83
			c-0.21-1,0.01-1.95,0.93-2.54c0.89-0.58,1.99-0.6,2.69,0.1c1.64,1.62,3.13,3.39,4.61,5.16
			C172.7,137.15,172.65,137.74,172.82,138.56z"/>
		<path d="M188.18,102.82c-0.25,0.34-0.65,1.32-1.37,1.75c-1.55,0.93-3.24,1.66-4.94,2.32c-1.25,0.48-3.65-1.03-3.93-2.33
			c-0.24-1.1,0.27-1.97,1.2-2.35c2.04-0.84,4.12-1.69,6.26-2.18C187.19,99.62,188.4,100.77,188.18,102.82z"/>
		<path d="M174.82,82.88c1.88,0.01,3.18,1.68,2.5,3.42c-0.82,2.1-2.38,3.59-4.54,4.28c-1.37,0.44-2.67-0.08-3.39-1.14
			c-0.75-1.1-0.68-2.33,0.19-3.56C170.69,84.34,173.25,82.86,174.82,82.88z"/>
		<path d="M104.77,114.17c2.13-0.04,3.08,0.62,3.39,1.83c0.28,1.1-0.13,2.24-1.32,2.76c-1.52,0.66-3.12,1.16-4.73,1.54
			c-1.07,0.25-3.16-1.48-3.34-2.58c-0.19-1.15,0.49-1.85,1.43-2.18C101.91,114.94,103.67,114.49,104.77,114.17z"/>
		<path d="M183.19,121.03c-0.59-0.2-1.69-0.41-2.64-0.91c-1.18-0.62-1.61-1.82-1.35-3.03c0.27-1.26,1.11-2.02,2.31-2.03
			c1.4-0.02,2.86,0.07,4.18,0.48c1.59,0.5,2.2,1.76,1.94,3.13c-0.23,1.2-1.22,2.03-2.74,2.26
			C184.5,120.97,184.1,120.97,183.19,121.03z"/>
		<path d="M168.48,74.42c1.76,0.06,2.73,1.44,2.12,3.08c-0.46,1.23-1.26,2.19-2.49,2.74c-1.07,0.48-2.03,0.25-2.83-0.55
			c-0.81-0.82-0.91-1.79-0.38-2.84C165.57,75.53,167.24,74.37,168.48,74.42z"/>
		<path d="M130.08,83.76c-3.37,0.31-5.6-1.37-7.56-3.54c-0.69-0.77-0.34-1.51,0.45-1.99c0.99-0.6,2.03-0.34,2.97,0.14
			C128.11,79.48,129.41,81.28,130.08,83.76z"/>
		<path class="st0" d="M125.51,115.25c1.76-2.39,3.17-4.29,4.57-6.2c0.28-0.38,0.51-0.8,0.9-1.42c1.31,2.4,2.37,4.34,3.6,6.6
			C131.53,114.57,128.81,114.88,125.51,115.25z"/>
		<path class="st0" d="M145.74,108.7c3.13-2.76,5.73-5.65,5.2-10.1c2.09,1.18,3.02,3.36,2.41,5.38
			C152.42,107.05,149.25,109.14,145.74,108.7z"/>
		<path class="st0" d="M158.07,106.72c1.28,1.64,2.42,3.11,3.82,4.91c-3.1,0.31-5.75,0.58-8.39,0.84c-0.09-0.13-0.17-0.25-0.26-0.38
			C154.8,110.37,156.34,108.64,158.07,106.72z"/>
		<path class="st0" d="M143.66,82.6c1.4,2.64,2.51,4.72,3.84,7.23c-2.45-0.25-4.4-0.45-6.68-0.68
			C141.76,86.99,142.6,85.04,143.66,82.6z"/>
		<path class="st0" d="M138.54,103.03c0.13,2.51,0.57,4.65,2.64,6.18c-2.25,0.62-2.8,0.31-3.95-2.04
			C136.29,105.26,136.46,104.6,138.54,103.03z"/>
	</g>
</g>
</svg>
