<?xml version="1.0" encoding="utf-8"?>
<!-- Generator: Adobe Illustrator 23.0.1, SVG Export Plug-In . SVG Version: 6.00 Build 0)  -->
<svg version="1.1" id="Layer_1" xmlns="http://www.w3.org/2000/svg" xmlns:xlink="http://www.w3.org/1999/xlink" x="0px" y="0px"
	 viewBox="0 0 107 97" style="enable-background:new 0 0 107 97;" xml:space="preserve">
<g>
	<g>
		<g>
			<path d="M12.6,54.68c27.57,0,55.15,0,82.72,0c6.43,0,6.45-10,0-10c-27.57,0-55.15,0-82.72,0C6.16,44.68,6.15,54.68,12.6,54.68
				L12.6,54.68z"/>
		</g>
	</g>
	<g>
		<g>
			<path d="M12.6,89.68c27.57,0,55.15,0,82.72,0c6.43,0,6.45-10,0-10c-27.57,0-55.15,0-82.72,0C6.16,79.68,6.15,89.68,12.6,89.68
				L12.6,89.68z"/>
		</g>
	</g>
	<g>
		<g>
			<g>
				<path d="M102.79,19.83C86.86,14.73,71.23,8.78,55.98,1.91c-5.82-2.62-10.91,5.99-5.05,8.63c16.04,7.22,32.44,13.56,49.2,18.92
					C106.28,31.44,108.91,21.78,102.79,19.83L102.79,19.83z"/>
			</g>
		</g>
		<g>
			<g>
				<path d="M6.78,29.47c16.76-5.36,33.16-11.7,49.2-18.92c5.86-2.64,0.78-11.26-5.05-8.63C35.68,8.78,20.06,14.73,4.13,19.83
					C-1.98,21.78,0.63,31.44,6.78,29.47L6.78,29.47z"/>
			</g>
		</g>
	</g>
</g>
</svg>
