<?xml version="1.0" encoding="utf-8"?>
<!-- Generator: Adobe Illustrator 23.0.1, SVG Export Plug-In . SVG Version: 6.00 Build 0)  -->
<svg version="1.1" id="Layer_1" xmlns="http://www.w3.org/2000/svg" xmlns:xlink="http://www.w3.org/1999/xlink" x="0px" y="0px"
	 viewBox="0 0 107 97" style="enable-background:new 0 0 107 97;" xml:space="preserve">
<g>
	<g>
		<g>
			<path d="M21.17,36.97c19.5,19.5,39,39,58.49,58.49c4.56,4.56,11.63-2.51,7.07-7.07c-19.5-19.5-39-39-58.49-58.49
				C23.69,25.34,16.62,32.41,21.17,36.97L21.17,36.97z"/>
		</g>
	</g>
	<g>
		<g>
			<path d="M28.25,95.46c19.5-19.5,39-39,58.49-58.49c4.56-4.56-2.51-11.63-7.07-7.07c-19.5,19.5-39,39-58.49,58.49
				C16.62,92.95,23.69,100.02,28.25,95.46L28.25,95.46z"/>
		</g>
	</g>
</g>
<g>
	<g>
		<g>
			<path d="M102.79,19.83C86.86,14.73,71.23,8.78,55.98,1.91c-5.82-2.62-10.91,5.99-5.05,8.63c16.04,7.22,32.44,13.56,49.2,18.92
				C106.28,31.44,108.91,21.78,102.79,19.83L102.79,19.83z"/>
		</g>
	</g>
	<g>
		<g>
			<path d="M6.78,29.47c16.76-5.36,33.16-11.7,49.2-18.92c5.86-2.64,0.78-11.26-5.05-8.63C35.68,8.78,20.06,14.73,4.13,19.83
				C-1.98,21.78,0.63,31.44,6.78,29.47L6.78,29.47z"/>
		</g>
	</g>
</g>
</svg>
