<svg id="Layer_1" data-name="Layer 1" xmlns="http://www.w3.org/2000/svg" viewBox="0 0 115.64 28.16"><defs><style>.cls-1{fill:#231f20;}</style></defs><title>poshaus aiii</title><path class="cls-1" d="M63.58,326.83" transform="translate(-126.35 -32.65)"/><path class="cls-1" d="M62.22,326" transform="translate(-126.35 -32.65)"/><path class="cls-1" d="M134.47,33.08a7.26,7.26,0,0,1,3.62.84,5.86,5.86,0,0,1,2.3,2.25,6.25,6.25,0,0,1,.8,3.12v8.1c-1.31,1.21-2.81,2.47-4.52,3.76s-3.27,2.43-4.72,3.43v5.79h-5.6V37.69ZM136,45.21V42.28c0-1.11,0-2-.08-2.61a2.35,2.35,0,0,0-.45-1.36,1.9,1.9,0,0,0-1.21-.54,18.13,18.13,0,0,0-1.86-.08H132V48.45A24.31,24.31,0,0,0,136,45.21Z" transform="translate(-126.35 -32.65)"/><path class="cls-1" d="M157.14,37.18a5.37,5.37,0,0,1,.14.75,5.28,5.28,0,0,1,.07.79v15.9a6.25,6.25,0,0,1-.8,3.12,5.88,5.88,0,0,1-2.3,2.23,7.26,7.26,0,0,1-3.62.84h-1.89a7.34,7.34,0,0,1-3.62-.84,5.85,5.85,0,0,1-2.29-2.23,6.24,6.24,0,0,1-.79-3.12V38.84a6.21,6.21,0,0,1,.79-3.12,5.88,5.88,0,0,1,2.29-2.24,7.45,7.45,0,0,1,3.62-.83h1.89A7,7,0,0,1,155,33.91,5.81,5.81,0,0,1,157.14,37.18Zm-5.39,4.66c0-1.19,0-2.12-.09-2.78a1.64,1.64,0,0,0-2-1.77,2.14,2.14,0,0,0-1.44.39,2.11,2.11,0,0,0-.54,1.38c-.06.66-.09,1.59-.09,2.78v9.77c0,1.2,0,2.12.09,2.78a2.11,2.11,0,0,0,.53,1.38,2.91,2.91,0,0,0,2.91,0,2.06,2.06,0,0,0,.52-1.38c.05-.66.08-1.58.08-2.78Z" transform="translate(-126.35 -32.65)"/><path class="cls-1" d="M172.69,43.46l-5-.07v-5.7h-.12l-.84,0a7.22,7.22,0,0,0-2.51.31q-.72.3-.78,1.86c0,.17,0,.37,0,.61s0,.49,0,.74,0,.45,0,.62v.26L173,49v5.16a6.25,6.25,0,0,1-.8,3.12,5.93,5.93,0,0,1-2.3,2.25,7.38,7.38,0,0,1-3.61.83H158.2V50.62l4.53.05.09,5.07,1.66,0c.27,0,.52,0,.75,0a8.37,8.37,0,0,0,1.54-.12,1.12,1.12,0,0,0,.86-.82,8.18,8.18,0,0,0,.23-2.29V52.2l-9.66-7V39.29a6.24,6.24,0,0,1,.79-3.12,5.79,5.79,0,0,1,2.3-2.25,7.27,7.27,0,0,1,3.61-.84h7.89Z" transform="translate(-126.35 -32.65)"/><path class="cls-1" d="M187,47.54V33.08h5.58V60.37H187V52.05m-7.53,0v8.3h-5.6V47.54h0V33.08h5.6V47.54" transform="translate(-126.35 -32.65)"/><path class="cls-1" d="M199,52.06h0v8.3h-5.6V47.53h0V39.28a6.14,6.14,0,0,1,.8-3.12,5.9,5.9,0,0,1,2.29-2.25,7.32,7.32,0,0,1,3.63-.84h9.2V60.36h-5.6V52m0-4.51V37.68h0l-1.45,0a5.8,5.8,0,0,0-2.43.34c-.55.29-.82,1.13-.82,2.51v7" transform="translate(-126.35 -32.65)"/><path class="cls-1" d="M220.47,33.07h5.58V60.36h-9.2a7.41,7.41,0,0,1-3.61-.83,5.79,5.79,0,0,1-2.3-2.25,6.24,6.24,0,0,1-.79-3.12V33.07h5.58V52.78c0,1.41.27,2.28.8,2.59a6.31,6.31,0,0,0,2.82.42c.27,0,.55,0,.86,0h.26Z" transform="translate(-126.35 -32.65)"/><path class="cls-1" d="M241.71,43.76l-5.07-.37v-5.7h-.11l-.84,0a7.29,7.29,0,0,0-2.52.31q-.72.3-.78,1.86c0,.17,0,.37,0,.61s0,.49,0,.74,0,.45,0,.62v.26L242,49v5.16a6.25,6.25,0,0,1-.8,3.12,5.9,5.9,0,0,1-2.29,2.25,7.38,7.38,0,0,1-3.61.83h-8.11V50.62l4.48.05.1,5.17c.47,0,1.32-.09,1.7-.08s.51,0,.74,0a8.29,8.29,0,0,0,1.54-.12,1.11,1.11,0,0,0,.86-.82,8.18,8.18,0,0,0,.23-2.29V52.2l-9.65-7V39.29a6.24,6.24,0,0,1,.79-3.12,5.77,5.77,0,0,1,2.29-2.25,7.31,7.31,0,0,1,3.62-.84l7.85,6Z" transform="translate(-126.35 -32.65)"/><path class="cls-1" d="M206.7,52.3h.13a2.5,2.5,0,0,0,0-5h-.13a2.5,2.5,0,0,0,0,5Z" transform="translate(-126.35 -32.65)"/><path class="cls-1" d="M205.2,47.31c-10,.06-19.73-.33-28.8,4.5-2.84,1.52-.31,5.84,2.53,4.32,8.2-4.37,17.26-3.77,26.27-3.82,3.21,0,3.22-5,0-5Z" transform="translate(-126.35 -32.65)"/></svg>
